<?xml version="1.0" encoding="UTF-8"?>
<svg version="1.1" xmlns="http://www.w3.org/2000/svg" width="500" height="500">
<path d="M0 0 C1.32 0 2.64 0 4 0 C4.00410889 1.00901367 4.00821777 2.01802734 4.01245117 3.05761719 C4.03425329 6.80780852 4.08855218 10.5569522 4.15258789 14.30664062 C4.17575884 15.92828313 4.19016154 17.55007593 4.19555664 19.171875 C4.20485373 21.50615996 4.245853 23.83808441 4.29296875 26.171875 C4.2890361 26.89493835 4.28510345 27.61800171 4.28105164 28.36297607 C4.39083468 32.16567401 4.71183975 33.70480718 7.41088867 36.46972656 C10.0888023 38.05248589 11.11148531 38.47270819 14.125 38 C14.78757812 37.9175 15.45015625 37.835 16.1328125 37.75 C18.8070978 36.67581009 19.54522585 35.49647978 21 33 C21.32401552 30.38958022 21.48791105 28.0031306 21.51171875 25.390625 C21.52966995 24.66381531 21.54762115 23.93700562 21.56611633 23.18817139 C21.62013241 20.87550593 21.6540856 18.56304579 21.6875 16.25 C21.72068093 14.6783569 21.75517132 13.10674086 21.79101562 11.53515625 C21.87585328 7.69025254 21.94270506 3.84540878 22 0 C23.32 0 24.64 0 26 0 C26.01981934 0.94842773 26.03963867 1.89685547 26.06005859 2.87402344 C26.13825761 6.40032364 26.22495366 9.92620361 26.31738281 13.45214844 C26.35561266 14.97680658 26.390476 16.50155307 26.421875 18.02636719 C26.46765662 20.22102381 26.52562766 22.4150754 26.5859375 24.609375 C26.59748871 25.2886908 26.60903992 25.96800659 26.62094116 26.66790771 C26.73206979 30.2493699 26.99499911 32.98021201 29 36 C32.15398926 38.54745287 35.27118612 38.07846712 39.09765625 37.77734375 C42.02881336 36.57960193 42.63679691 34.81637571 44 32 C44.50194005 28.424376 44.50194005 28.424376 44.51171875 24.51171875 C44.52966995 23.80852005 44.54762115 23.10532135 44.56611633 22.3808136 C44.6200048 20.14976883 44.65404412 17.9189353 44.6875 15.6875 C44.72069224 14.16859053 44.75518367 12.64970886 44.79101562 11.13085938 C44.87571695 7.42077584 44.94263074 3.7106183 45 0 C45.99 0 46.98 0 48 0 C48.07435222 4.75053511 48.12869691 9.50072887 48.16479492 14.25170898 C48.17984876 15.86667789 48.20029648 17.48160613 48.22631836 19.09643555 C48.26285286 21.42246555 48.27976015 23.74795341 48.29296875 26.07421875 C48.30845261 26.79212082 48.32393646 27.51002289 48.33988953 28.24967957 C48.34137201 32.70072605 47.70723789 35.44861807 45 39 C41.26255137 42.18782383 37.88924258 42.4545089 33.15234375 42.296875 C29.1466478 41.74436521 26.7792459 39.7792459 24 37 C23.401875 37.639375 22.80375 38.27875 22.1875 38.9375 C18.57886259 42.33992955 15.01894606 42.34287715 10.2890625 42.28125 C6.69447093 41.8395937 4.65145566 40.39277706 2 38 C-0.20991087 33.83632489 -0.26364379 29.9003975 -0.1953125 25.29296875 C-0.1924826 24.56757401 -0.18965271 23.84217926 -0.18673706 23.09480286 C-0.17559799 20.79219632 -0.15050566 18.48998773 -0.125 16.1875 C-0.11496206 14.62044835 -0.10583763 13.05339057 -0.09765625 11.48632812 C-0.0756793 7.65740022 -0.04119339 3.82876744 0 0 Z " fill="#FFFFFF" transform="translate(301,219)"/>
<path d="M0 0 C16.87845304 0 16.87845304 0 23 4 C29.26990887 10.47464059 30.41147644 15.53914223 30.34765625 24.4375 C29.72553226 30.81252334 26.93177505 34.24792496 22.3125 38.4375 C18.39767049 41.08265508 16.11061733 41.10892762 11.375 41.0625 C10.18648437 41.05347656 8.99796875 41.04445313 7.7734375 41.03515625 C6.85820312 41.02355469 5.94296875 41.01195312 5 41 C5 40.01 5 39.02 5 38 C5.72445312 37.97421875 6.44890625 37.9484375 7.1953125 37.921875 C13.1836688 37.5705581 17.36821546 37.16860608 22 33 C25.7628359 27.80988151 26.43874835 23.36185112 26 17 C24.64185993 13.78287055 24.64185993 13.78287055 23 11 C22.67 10.01 22.34 9.02 22 8 C19.75256244 6.84979475 19.75256244 6.84979475 17 6 C16.05125 5.649375 15.1025 5.29875 14.125 4.9375 C10.40949174 3.73825739 10.40949174 3.73825739 4 3 C4 15.54 4 28.08 4 41 C2.68 41 1.36 41 0 41 C0 27.47 0 13.94 0 0 Z " fill="#FFFFFF" transform="translate(237,219)"/>
<path d="M0 0 C3.48971453 1.57683397 5.38147056 3.78654605 7.13232422 7.22143555 C8.2131106 10.68244564 8.22514843 13.64446525 8.1953125 17.26953125 C8.1924826 17.95053391 8.18965271 18.63153656 8.18673706 19.33317566 C8.17560525 21.49313455 8.15051457 23.65266794 8.125 25.8125 C8.11496111 27.28319711 8.10583685 28.75390076 8.09765625 30.22460938 C8.07568913 33.81654286 8.0412082 37.40822985 8 41 C7.01 41 6.02 41 5 41 C5 34.73 5 28.46 5 22 C-1.93 22 -8.86 22 -16 22 C-16 21.01 -16 20.02 -16 19 C-9.07 19 -2.14 19 5 19 C4.5875 17.081875 4.175 15.16375 3.75 13.1875 C3.51796875 12.10855469 3.2859375 11.02960938 3.046875 9.91796875 C1.86456856 6.62251014 1.06459024 5.61788278 -2 4 C-4.17872509 3.45755831 -4.17872509 3.45755831 -6.4375 3.5 C-7.54931641 3.45359375 -7.54931641 3.45359375 -8.68359375 3.40625 C-12.24787635 4.31986038 -13.69324995 6.18228181 -16 9 C-16.77506771 12.56319377 -16.77506771 12.56319377 -16.70703125 16.48828125 C-16.72215256 17.19147995 -16.73727386 17.89467865 -16.75285339 18.6191864 C-16.79561495 20.85062003 -16.80455593 23.08069809 -16.8125 25.3125 C-16.83565371 26.83141595 -16.86102089 28.35029988 -16.88867188 29.86914062 C-16.95140606 33.57940133 -16.98383444 37.28921085 -17 41 C-18.32 41 -19.64 41 -21 41 C-21.07451364 36.6950223 -21.12877223 32.39039266 -21.16479492 28.08496094 C-21.17982196 26.62232925 -21.20024955 25.15974218 -21.22631836 23.69726562 C-21.26297267 21.5871272 -21.27978676 19.47758774 -21.29296875 17.3671875 C-21.3086792 16.09987793 -21.32438965 14.83256836 -21.34057617 13.52685547 C-20.85531768 8.50173415 -19.22300616 5.25227468 -15.71484375 1.66015625 C-10.80571905 -1.34182648 -5.55206505 -0.80909491 0 0 Z " fill="#FFFFFF" transform="translate(162,219)"/>
<path d="M0 0 C1.54300781 -0.03867188 1.54300781 -0.03867188 3.1171875 -0.078125 C6.65346879 0.30765114 8.35869671 1.01820277 11.125 3.25 C13.99379103 7.91227009 14.48314119 11.40490096 14.41796875 16.8359375 C14.41372391 17.53772125 14.40947906 18.239505 14.40510559 18.96255493 C14.38843599 21.1837756 14.35080872 23.40405788 14.3125 25.625 C14.29743788 27.13930973 14.28375216 28.65363381 14.27148438 30.16796875 C14.23857183 33.86227932 14.18687259 37.55604793 14.125 41.25 C13.135 41.25 12.145 41.25 11.125 41.25 C11.125 34.98 11.125 28.71 11.125 22.25 C4.195 22.25 -2.735 22.25 -9.875 22.25 C-9.875 21.26 -9.875 20.27 -9.875 19.25 C-2.945 19.25 3.985 19.25 11.125 19.25 C10.815625 17.496875 10.50625 15.74375 10.1875 13.9375 C10.01347656 12.95136719 9.83945312 11.96523437 9.66015625 10.94921875 C9.16753153 8.16810787 9.16753153 8.16810787 8.125 5.25 C5.38612556 4.23116268 2.59494952 4.00601159 -0.3125 3.875 C-1.05371094 3.82601562 -1.79492188 3.77703125 -2.55859375 3.7265625 C-6.15999831 4.54037061 -7.56814542 6.42792912 -9.875 9.25 C-10.65006771 12.81319377 -10.65006771 12.81319377 -10.58203125 16.73828125 C-10.59715256 17.44147995 -10.61227386 18.14467865 -10.62785339 18.8691864 C-10.67061495 21.10062003 -10.67955593 23.33069809 -10.6875 25.5625 C-10.71065371 27.08141595 -10.73602089 28.60029988 -10.76367188 30.11914062 C-10.82640606 33.82940133 -10.85883444 37.53921085 -10.875 41.25 C-12.195 41.25 -13.515 41.25 -14.875 41.25 C-14.93345252 36.75005528 -14.96874855 32.25020937 -15 27.75 C-15.02513672 25.84734375 -15.02513672 25.84734375 -15.05078125 23.90625 C-15.13315285 8.09090198 -15.13315285 8.09090198 -10.9375 2.8125 C-7.41199648 0.141664 -4.29405874 0.06425026 0 0 Z " fill="#FFFFFF" transform="translate(368.875,218.75)"/>
<path d="M0 0 C3.74769096 1.62399942 5.56051976 3.93929671 7.13232422 7.73291016 C8.09164848 11.3450872 8.2272313 14.4139377 8.1953125 18.1484375 C8.1924826 18.80582916 8.18965271 19.46322083 8.18673706 20.14053345 C8.17563447 22.21888233 8.15054986 24.29678366 8.125 26.375 C8.11495731 27.79296248 8.10583373 29.21093179 8.09765625 30.62890625 C8.07572805 34.08608037 8.04126818 37.54299642 8 41 C6.68 41 5.36 41 4 41 C4 34.73 4 28.46 4 22 C-2.6 22 -9.2 22 -16 22 C-16 21.01 -16 20.02 -16 19 C-9.4 19 -2.8 19 4 19 C3.81111051 12.03795286 3.81111051 12.03795286 1 5.875 C-3.07356064 3.3290246 -6.31467222 3.06632961 -11 4 C-14.49890004 6.11391877 -15.70578686 7.11736059 -17 11 C-17.15145099 13.2825699 -17.24886979 15.56887706 -17.31640625 17.85546875 C-17.33718735 18.51710526 -17.35796844 19.17874176 -17.37937927 19.86042786 C-17.44464727 21.96934852 -17.50365344 24.07839135 -17.5625 26.1875 C-17.60570689 27.61915315 -17.64932188 29.05079404 -17.69335938 30.48242188 C-17.80030506 33.98815154 -17.90163641 37.49401786 -18 41 C-18.99 41 -19.98 41 -21 41 C-21.07449251 36.55260587 -21.12876257 32.1055481 -21.16479492 27.65771484 C-21.17982543 26.14658273 -21.20025564 24.63549382 -21.22631836 23.12451172 C-21.26295689 20.94487813 -21.27978338 18.76582425 -21.29296875 16.5859375 C-21.3086792 15.2767334 -21.32438965 13.9675293 -21.34057617 12.61865234 C-20.97231481 8.70584239 -20.0481787 6.32990639 -18 3 C-12.68069754 -1.29181327 -6.50857836 -0.86672023 0 0 Z " fill="#FFFFFF" transform="translate(223,219)"/>
<path d="M0 0 C3.81248426 -0.02887236 7.6249407 -0.04675492 11.4375 -0.0625 C12.52611328 -0.07087891 13.61472656 -0.07925781 14.73632812 -0.08789062 C15.77080078 -0.09111328 16.80527344 -0.09433594 17.87109375 -0.09765625 C18.82943115 -0.10289307 19.78776855 -0.10812988 20.77514648 -0.11352539 C23 0 23 0 24 1 C24.55951431 5.05497468 24.14010287 6.77074075 21.98046875 10.3046875 C21.06276751 11.50506826 20.13088757 12.69469943 19.1875 13.875 C18.18253499 15.18438933 17.18001298 16.49565657 16.1796875 17.80859375 C15.65858398 18.48776855 15.13748047 19.16694336 14.60058594 19.86669922 C11.89079409 23.47837725 9.35291052 27.20566861 6.8125 30.9375 C5.224375 33.268125 3.63625 35.59875 2 38 C9.59 38 17.18 38 25 38 C25 38.99 25 39.98 25 41 C16.42 41 7.84 41 -1 41 C-2 36 -2 36 -1.06298828 33.89453125 C-0.57040527 33.20746094 -0.07782227 32.52039063 0.4296875 31.8125 C0.97407471 31.03688721 1.51846191 30.26127441 2.0793457 29.4621582 C2.96819458 28.24338989 2.96819458 28.24338989 3.875 27 C4.46692139 26.16364014 5.05884277 25.32728027 5.66870117 24.46557617 C6.86727152 22.77291389 8.07159217 21.08430814 9.28173828 19.39990234 C11.23284475 16.6747849 13.14248295 13.92342442 15.04077148 11.16137695 C16.68630756 8.76904739 18.34431123 6.38531432 20 4 C13.4 3.67 6.8 3.34 0 3 C0 2.01 0 1.02 0 0 Z " fill="#FFFFFF" transform="translate(272,219)"/>
<path d="M0 0 C1.63001953 0.01353516 1.63001953 0.01353516 3.29296875 0.02734375 C4.12441406 0.03894531 4.95585937 0.05054688 5.8125 0.0625 C5.8125 1.0525 5.8125 2.0425 5.8125 3.0625 C4.70841797 3.08376953 4.70841797 3.08376953 3.58203125 3.10546875 C-1.04683874 3.33171471 -4.32226609 3.52605498 -8.3125 6 C-10.99742223 10.38537297 -10.9828111 13.94527757 -11.1875 19.0625 C-5.5775 19.0625 0.0325 19.0625 5.8125 19.0625 C5.8125 20.0525 5.8125 21.0425 5.8125 22.0625 C0.2025 22.0625 -5.4075 22.0625 -11.1875 22.0625 C-11.1875 28.3325 -11.1875 34.6025 -11.1875 41.0625 C-12.5075 41.0625 -13.8275 41.0625 -15.1875 41.0625 C-15.26215394 36.91824912 -15.31633721 32.77436376 -15.35229492 28.62963867 C-15.36729877 27.22234266 -15.38770863 25.81509276 -15.41381836 24.40795898 C-15.45057665 22.37472093 -15.46730984 20.34210568 -15.48046875 18.30859375 C-15.4961792 17.08841553 -15.51188965 15.8682373 -15.52807617 14.61108398 C-15.0721032 9.86013976 -13.71623898 5.97342373 -10.6875 2.1875 C-7.34275583 -0.32105813 -4.00210802 -0.04303342 0 0 Z " fill="#FFFFFF" transform="translate(191.1875,218.9375)"/>
<path d="M0 0 C8.58 0 17.16 0 26 0 C26 0.99 26 1.98 26 3 C22.37 3 18.74 3 15 3 C15 15.54 15 28.08 15 41 C14.01 41 13.02 41 12 41 C12 28.46 12 15.92 12 3 C8.04 3 4.08 3 0 3 C0 2.01 0 1.02 0 0 Z " fill="#FFFFFF" transform="translate(113,219)"/>
</svg>
