<?xml version="1.0" encoding="UTF-8"?>
<svg version="1.1" xmlns="http://www.w3.org/2000/svg" width="800" height="280">
<path d="M0 0 C1.86758939 -0.00099549 3.73517872 -0.00213249 5.60276794 -0.00340271 C24.15576423 -0.01266921 42.70878007 0.0184962 61.26171875 0.0625 C60.33239922 1.94215006 59.40058838 3.82056849 58.46777344 5.69848633 C57.94914734 6.74466629 57.43052124 7.79084625 56.8961792 8.86872864 C54.29817233 13.94529072 51.41488293 18.843523 48.51171875 23.75 C47.90553711 24.7800415 47.29935547 25.81008301 46.67480469 26.87133789 C45.45246349 28.94818911 44.22885447 31.02429474 43.00390625 33.09960938 C41.38928407 35.84555315 39.79051463 38.59986587 38.19921875 41.359375 C37.7412793 42.14997314 37.28333984 42.94057129 36.81152344 43.75512695 C35.96470225 45.21765905 35.12142002 46.68224777 34.28222656 48.14916992 C31.4872955 52.94971162 31.4872955 52.94971162 29.26171875 54.0625 C22.01589996 55.18880795 14.66386444 55.26157117 7.34765625 55.37890625 C6.25200348 55.39968735 5.15635071 55.42046844 4.02749634 55.44187927 C0.56396105 55.50670943 -2.89964313 55.56594702 -6.36328125 55.625 C-8.72656932 55.66824866 -11.0898507 55.71186486 -13.453125 55.75585938 C-19.21477318 55.86232153 -24.97648825 55.96420522 -30.73828125 56.0625 C-28.99148453 61.66327878 -27.00352487 66.8907058 -24.33203125 72.1328125 C-24.01112518 72.76760025 -23.69021912 73.402388 -23.35958862 74.05641174 C-22.67693631 75.40564563 -21.9916544 76.75355193 -21.30389404 78.10018921 C-19.47971155 81.67337812 -17.67659721 85.25719063 -15.87109375 88.83984375 C-15.5118985 89.55141129 -15.15270325 90.26297882 -14.78262329 90.99610901 C-11.81773162 96.87868938 -8.93787094 102.79870531 -6.11328125 108.75 C-5.69522217 109.63067139 -5.27716309 110.51134277 -4.84643555 111.41870117 C-3.97189386 113.26150315 -3.09746687 115.10435957 -2.22314453 116.94726562 C0.80963829 123.31002603 3.88213385 129.65372292 6.94921875 136 C7.58090516 137.30752942 8.21257869 138.61506505 8.84423828 139.92260742 C10.31628606 142.9694538 11.78884335 146.0160536 13.26171875 149.0625 C13.92171875 149.0625 14.58171875 149.0625 15.26171875 149.0625 C15.75816895 148.14476807 15.75816895 148.14476807 16.26464844 147.20849609 C17.84662123 144.28462277 19.42910468 141.36102627 21.01171875 138.4375 C21.6037207 137.34373047 22.19572266 136.24996094 22.80566406 135.12304688 C25.59376854 129.97509077 28.38519817 124.82915584 31.19921875 119.6953125 C37.46885162 108.25655583 43.62705121 96.76249466 49.73660278 85.23773193 C56.28429882 72.88668121 62.89201126 60.56938385 69.53369141 48.26855469 C71.34768377 44.90300683 73.155004 41.53394102 74.9609375 38.1640625 C92.07173247 6.25248628 92.07173247 6.25248628 95.26171875 3.0625 C98.02158848 2.86685835 100.68096583 2.79769275 103.44189453 2.81526184 C104.29853951 2.81284743 105.15518448 2.81043301 106.03778839 2.80794543 C108.92761205 2.80228095 111.81721729 2.81099377 114.70703125 2.81958008 C116.77395691 2.8185075 118.84088228 2.81656917 120.9078064 2.81382751 C126.55139041 2.80895771 132.19489592 2.81667275 137.83847046 2.82678056 C143.7861929 2.83558199 149.733913 2.83380283 155.68164062 2.8334198 C165.72299499 2.83435908 175.76431933 2.84305831 185.80566406 2.85668945 C197.28020691 2.87221261 208.75471642 2.87769476 220.22926903 2.8769539 C232.55794933 2.87626627 244.88661737 2.88329678 257.21529388 2.8924005 C260.69807485 2.89449301 264.18085372 2.89523639 267.66363525 2.89563942 C299.54088689 2.90268063 331.39333634 3.30639447 363.26171875 4.0625 C363.26171875 8.52959231 362.45884784 9.94312251 360.25390625 13.734375 C359.60413818 14.86117676 358.95437012 15.98797852 358.28491211 17.14892578 C357.56902827 18.37022308 356.85295908 19.59141174 356.13671875 20.8125 C355.40233352 22.07883393 354.66869991 23.34560402 353.93579102 24.61279297 C352.0724604 27.82958495 350.19909585 31.04039358 348.32196045 34.24914551 C346.74720812 36.94247875 345.1785444 39.63934879 343.609375 42.3359375 C341.33279191 46.24493415 339.05057792 50.1505786 336.765625 54.0546875 C333.67127292 59.34906015 330.60959498 64.66176464 327.5534668 69.97827148 C322.23212808 79.23486591 316.87599109 88.46676671 311.38671875 97.625 C310.6275415 98.8929541 310.6275415 98.8929541 309.85302734 100.18652344 C306.39151928 105.93269947 306.39151928 105.93269947 305.26171875 107.0625 C303.26740145 107.15655142 301.26972332 107.17993249 299.27319336 107.17602539 C297.99194077 107.17594986 296.71068817 107.17587433 295.39060974 107.17579651 C293.98176027 107.17068909 292.57291119 107.16547309 291.1640625 107.16015625 C289.73059641 107.15829202 288.29712968 107.15686814 286.86366272 107.15586853 C283.08411918 107.15204372 279.30461385 107.14221377 275.52508545 107.13116455 C271.67102577 107.12094963 267.81695993 107.11637074 263.96289062 107.11132812 C256.39581588 107.10059146 248.82877266 107.08351549 241.26171875 107.0625 C241.93106988 102.53275464 242.91754245 99.4141496 245.25390625 95.45703125 C245.87185059 94.39943604 246.48979492 93.34184082 247.12646484 92.25219727 C247.78984863 91.13772217 248.45323242 90.02324707 249.13671875 88.875 C249.81686787 87.71662167 250.49605958 86.55768068 251.17431641 85.39819336 C252.54126986 83.06413405 253.91286052 80.73291494 255.2890625 78.40429688 C258.09184142 73.65622288 260.86693121 68.89236622 263.63671875 64.125 C264.0941748 63.34552002 264.55163086 62.56604004 265.02294922 61.76293945 C265.43947754 61.048396 265.85600586 60.33385254 266.28515625 59.59765625 C266.64528809 58.982854 267.00541992 58.36805176 267.37646484 57.73461914 C268.4086033 55.89585569 268.4086033 55.89585569 269.26171875 53.0625 C251.40679387 52.88924834 233.5530768 52.79056409 215.69731903 52.78009319 C207.40599332 52.77350172 199.11608786 52.74272202 190.82519531 52.65454102 C183.59675757 52.57772203 176.36980749 52.54675353 169.14097452 52.57031661 C165.31430158 52.58120238 161.49076932 52.56949014 157.66459656 52.50281334 C154.05809361 52.44069037 150.4566797 52.44016759 146.8499794 52.4856987 C144.90461019 52.49456883 142.95927577 52.43920155 141.01473999 52.38157654 C137.33857837 52.46401231 134.67210561 52.67313847 131.26171875 54.0625 C127.70607592 58.0515904 125.56886945 62.23584539 123.26171875 67.0625 C122.19689371 68.90588015 121.11797438 70.74131122 120.015625 72.5625 C118.95036176 74.39498471 117.88660949 76.22834845 116.82421875 78.0625 C115.60445049 80.1603213 114.38438505 82.25796983 113.1640625 84.35546875 C112.52968262 85.44649902 111.89530273 86.5375293 111.24169922 87.66162109 C107.80055631 93.57224017 104.34497319 99.47438042 100.88671875 105.375 C100.53097778 105.98209808 100.17523682 106.58919617 99.80871582 107.21469116 C94.59063813 116.11744339 89.34180734 125.0014541 84.07421875 133.875 C77.31515887 145.26172106 70.62469738 156.68698715 63.96630859 168.1328125 C49.63296374 192.76760743 35.25916805 217.37896214 20.70166016 241.88208008 C17.62041943 247.07036361 14.54553607 252.26238578 11.48828125 257.46484375 C10.93994629 258.39675537 10.39161133 259.32866699 9.82666016 260.28881836 C8.2022096 263.16797324 6.71591394 266.09422456 5.26171875 269.0625 C2.26171875 268.0625 2.26171875 268.0625 0.90234375 265.83544922 C0.4434375 264.85592285 -0.01546875 263.87639648 -0.48828125 262.8671875 C-1.0083374 261.77092041 -1.52839355 260.67465332 -2.06420898 259.54516602 C-2.61665283 258.35463623 -3.16909668 257.16410645 -3.73828125 255.9375 C-4.32195158 254.69994536 -4.90668094 253.46288969 -5.49243164 252.22631836 C-6.68390428 249.70748347 -7.87006883 247.18626578 -9.05126953 244.66259766 C-11.40491221 239.63990374 -13.78596962 234.63056583 -16.17578125 229.625 C-16.61341797 228.70638184 -17.05105469 227.78776367 -17.50195312 226.84130859 C-21.67105377 218.1266885 -25.9933099 209.48978349 -30.35327148 200.86938477 C-33.95937777 193.71371111 -37.45106732 186.51059335 -40.8984375 179.27734375 C-46.38517342 167.76550123 -51.97133905 156.30410971 -57.59008789 144.85620117 C-59.17293409 141.63080172 -60.75357649 138.40432915 -62.33398438 135.17773438 C-68.04358205 123.53069188 -73.79236496 111.90462968 -79.62181091 100.31703186 C-82.93009229 93.72868915 -86.13883437 87.09721918 -89.30078125 80.4375 C-93.30278366 72.01775396 -97.41570426 63.6629866 -101.61132812 55.33813477 C-105.40905866 47.77981367 -109.04217338 40.14912478 -112.65942383 32.50317383 C-116.15377717 25.16686131 -119.86706079 17.96557994 -123.74243164 10.82348633 C-126.73828125 5.2632629 -126.73828125 5.2632629 -126.73828125 3.0625 C-123.68717052 2.04546309 -121.55338885 1.91428419 -118.35693359 1.87304688 C-117.2464566 1.8562941 -116.13597961 1.83954132 -114.99185181 1.82228088 C-113.7815329 1.80874069 -112.57121399 1.7952005 -111.32421875 1.78125 C-110.0653183 1.76315781 -108.80641785 1.74506561 -107.5093689 1.72642517 C-104.79641272 1.68781046 -102.08349373 1.65081767 -99.3704834 1.6166687 C-92.91055978 1.53529221 -86.45080415 1.44213722 -79.99105835 1.34780693 C-78.55386602 1.32682863 -77.11667117 1.30602273 -75.67947388 1.28538704 C-66.94068462 1.15915908 -58.20509019 1.00003442 -49.46990299 0.7147398 C-32.9816768 0.18455086 -16.49595497 -0.0049149 0 0 Z " fill="#07235D" transform="translate(126.73828125,-0.0625)"/>
<path d="M0 0 C1.26108078 0.00022659 2.52216156 0.00045319 3.82145691 0.00068665 C5.19778803 0.01600655 6.57411553 0.03165453 7.95043945 0.04760742 C9.35862273 0.05320357 10.76681185 0.05747358 12.17500305 0.06047058 C15.87904014 0.07191799 19.5827236 0.10138383 23.28662109 0.13458252 C27.06709001 0.16528591 30.84761614 0.17897646 34.62817383 0.1940918 C42.04435057 0.22625401 49.46023606 0.27744862 56.8762207 0.34057617 C57.82310221 3.35124266 58.01028859 4.03900465 56.66723633 7.06005859 C56.04526367 8.09493408 55.42329102 9.12980957 54.7824707 10.19604492 C54.44464569 10.76585083 54.10682068 11.33565674 53.75875854 11.92272949 C52.64283884 13.79838325 51.50967275 15.66297422 50.3762207 17.52807617 C49.59205586 18.83900901 48.80902846 20.15062286 48.02709961 21.46289062 C46.03465587 24.8001382 44.02819351 28.12868643 42.01647949 31.4543457 C39.6936047 35.29687448 37.38450512 39.14769724 35.07299805 42.99707031 C33.85957071 45.0159259 32.64375299 47.0333467 31.42553711 49.04931641 C28.14296408 54.49590097 24.92426536 59.97216204 21.7824707 65.50073242 C21.44349762 66.09564987 21.10452454 66.69056732 20.75527954 67.30351257 C19.12124138 70.17296948 17.49637428 73.04661187 15.88549805 75.92919922 C15.3023584 76.95698486 14.71921875 77.98477051 14.1184082 79.04370117 C13.61164551 79.94765625 13.10488281 80.85161133 12.58276367 81.78295898 C10.45606735 84.97026522 9.020209 87.06474339 5.8762207 89.34057617 C1.83109969 90.11388574 -2.17547827 90.06127197 -6.28393555 90.04760742 C-8.199636 90.07035736 -8.199636 90.07035736 -10.15403748 90.09356689 C-13.73913392 90.13475432 -17.32372169 90.14389418 -20.9090271 90.14766312 C-23.96618414 90.15493001 -27.02306482 90.18079859 -30.08011055 90.20687771 C-40.99176325 90.29938106 -51.9032918 90.32208486 -62.81528473 90.33609009 C-66.31075741 90.3408297 -69.80622641 90.34681798 -73.30169678 90.35302734 C-109.57582053 90.41604538 -145.84967079 90.40285574 -182.1237793 90.34057617 C-174.85178556 75.57380499 -174.85178556 75.57380499 -170.9675293 69.23510742 C-170.61670288 68.65951584 -170.26587646 68.08392426 -169.90441895 67.4908905 C-168.81608601 65.70836234 -167.72008131 63.93071103 -166.6237793 62.15307617 C-165.89542093 60.96132053 -165.16755556 59.76926343 -164.44018555 58.5769043 C-151.9907421 38.20753897 -151.9907421 38.20753897 -149.1237793 35.34057617 C-147.06333923 35.02966309 -147.06333923 35.02966309 -144.43603516 34.9440918 C-142.91182701 34.88989075 -142.91182701 34.88989075 -141.35682678 34.83459473 C-139.64625343 34.79114929 -139.64625343 34.79114929 -137.90112305 34.74682617 C-136.68311508 34.70980591 -135.46510712 34.67278564 -134.21018982 34.63464355 C-113.33358219 34.03655464 -92.4388824 33.98836167 -71.55560303 33.81451416 C-65.43844449 33.76351307 -59.32134343 33.70882435 -53.2042675 33.6486969 C-50.3675242 33.62231296 -47.53077433 33.60142324 -44.69398499 33.58068848 C-42.9655835 33.56409612 -41.23718465 33.54722524 -39.50878906 33.5300293 C-38.33938782 33.52375267 -38.33938782 33.52375267 -37.1463623 33.51734924 C-31.5585098 33.47270309 -31.5585098 33.47270309 -26.1237793 32.34057617 C-24.50722137 30.22095423 -23.28090234 28.32195004 -22.0222168 26.00463867 C-21.65907379 25.36948334 -21.29593079 24.734328 -20.92178345 24.07992554 C-19.7649017 22.05033084 -18.63110426 20.00895614 -17.4987793 17.96557617 C-16.35536324 15.93187405 -15.20728641 13.9009708 -14.05435181 11.87265015 C-13.33888771 10.61084905 -12.62960017 9.34552036 -11.92733765 8.07632446 C-8.54300651 2.04752109 -7.12452817 -0.04266185 0 0 Z " fill="#F3702D" transform="translate(334.123779296875,189.659423828125)"/>
<path d="M0 0 C5.87202604 -0.06899247 11.74263721 -0.12868997 17.61474609 -0.16479492 C19.61088841 -0.17985098 21.60699781 -0.20030027 23.60302734 -0.22631836 C26.47762185 -0.26284161 29.35177772 -0.27975837 32.2265625 -0.29296875 C33.55815903 -0.31619453 33.55815903 -0.31619453 34.91665649 -0.33988953 C40.06126251 -0.34127661 43.50045593 0.20951022 48 3 C48.33 2.01 48.66 1.02 49 0 C65.5 0 82 0 99 0 C99 3.3 99 6.6 99 10 C98 11 98 11 94.18359375 11.09765625 C92.60153318 11.09098089 91.01948841 11.07901875 89.4375 11.0625 C88.63119141 11.05798828 87.82488281 11.05347656 86.99414062 11.04882812 C84.99606244 11.03700518 82.99802217 11.01906914 81 11 C81.00523682 11.81267334 81.01047363 12.62534668 81.01586914 13.46264648 C81.03656994 17.12092322 81.04963803 20.77918767 81.0625 24.4375 C81.07087891 25.71689453 81.07925781 26.99628906 81.08789062 28.31445312 C81.09111328 29.52939453 81.09433594 30.74433594 81.09765625 31.99609375 C81.10289307 33.12200928 81.10812988 34.2479248 81.11352539 35.40795898 C81 38 81 38 80 39 C75.71 39 71.42 39 67 39 C67 29.76 67 20.52 67 11 C60.73 11 54.46 11 48 11 C48 13.97 48 16.94 48 20 C45.80792099 23.6795612 43.79646397 25.22140449 40 27 C41.010625 27.69867188 42.02125 28.39734375 43.0625 29.1171875 C44.37524473 30.03610881 45.68773151 30.95539872 47 31.875 C47.66773438 32.33519531 48.33546875 32.79539063 49.0234375 33.26953125 C50.71859351 34.46305946 52.3637578 35.72690339 54 37 C54 37.66 54 38.32 54 39 C47.61405192 40.99063219 39.14071639 41.15826814 33.07958984 37.99902344 C29.08193774 35.34940454 25.55893806 32.2019787 22 29 C18.77208445 26.8480563 17.71599191 26.79913557 14 27 C14.01160156 27.78246094 14.02320313 28.56492188 14.03515625 29.37109375 C14.04417969 30.38300781 14.05320312 31.39492187 14.0625 32.4375 C14.07410156 33.44683594 14.08570313 34.45617187 14.09765625 35.49609375 C14 38 14 38 13 39 C8.71 39 4.42 39 0 39 C0 26.13 0 13.26 0 0 Z M13 11 C13.33 12.65 13.66 14.3 14 16 C20.6 16 27.2 16 34 16 C34.33 14.35 34.66 12.7 35 11 C33.44926853 9.44926853 31.96937747 9.87030872 29.81640625 9.8671875 C28.97142578 9.86589844 28.12644531 9.86460937 27.25585938 9.86328125 C26.36705078 9.86714844 25.47824219 9.87101563 24.5625 9.875 C23.67755859 9.87113281 22.79261719 9.86726562 21.88085938 9.86328125 C20.61145508 9.86521484 20.61145508 9.86521484 19.31640625 9.8671875 C18.53724854 9.86831543 17.75809082 9.86944336 16.95532227 9.87060547 C14.92025512 9.87854847 14.92025512 9.87854847 13 11 Z " fill="#030F4C" transform="translate(534,133)"/>
<path d="M0 0 C1.14113754 -0.00855011 1.14113754 -0.00855011 2.30532837 -0.01727295 C3.91415012 -0.02671248 5.52299112 -0.03325278 7.13183594 -0.03710938 C9.58563165 -0.04681201 12.03858839 -0.0778428 14.4921875 -0.109375 C16.05728671 -0.11590585 17.62239189 -0.121156 19.1875 -0.125 C20.28304703 -0.1435202 20.28304703 -0.1435202 21.40072632 -0.16241455 C25.85611647 -0.14305487 28.69587488 0.43781963 32.2265625 3.203125 C33.71788778 5.84683799 34.29126884 7.42664897 34.0390625 10.453125 C33.7709375 11.030625 33.5028125 11.608125 33.2265625 12.203125 C32.2365625 12.533125 31.2465625 12.863125 30.2265625 13.203125 C30.8865625 14.09 31.5465625 14.976875 32.2265625 15.890625 C35.2960697 21.20239632 34.89464416 27.26030556 34.2265625 33.203125 C33.39339555 35.64792297 32.7901426 36.80404888 30.68505859 38.29467773 C27.06029067 39.63407808 23.4776836 39.48809724 19.6640625 39.46875 C18.83575928 39.47066345 18.00745605 39.4725769 17.15405273 39.47454834 C15.40575862 39.47590712 13.65745432 39.47223214 11.90917969 39.46386719 C9.23609716 39.45316318 6.56368667 39.46377273 3.890625 39.4765625 C2.19010269 39.47524085 0.48958079 39.47267834 -1.2109375 39.46875 C-2.40795288 39.47482269 -2.40795288 39.47482269 -3.62915039 39.48101807 C-10.81454892 39.42042345 -10.81454892 39.42042345 -13.7734375 37.203125 C-15.21228861 34.11987263 -15.78825495 31.85509267 -15.7109375 28.453125 C-14.7734375 26.203125 -14.7734375 26.203125 -12.2109375 24.890625 C-11.004375 24.5503125 -11.004375 24.5503125 -9.7734375 24.203125 C-10.42441406 23.52378906 -11.07539063 22.84445313 -11.74609375 22.14453125 C-14.23695882 18.53061719 -14.2806923 16.48867417 -14.2109375 12.140625 C-14.20964844 10.93277344 -14.20835937 9.72492188 -14.20703125 8.48046875 C-13.75041099 5.02907779 -13.23254865 3.615947 -10.7734375 1.203125 C-7.14172335 -0.00744638 -3.78296115 0.02189112 0 0 Z M-0.7734375 11.203125 C-0.4434375 12.193125 -0.1134375 13.183125 0.2265625 14.203125 C6.8265625 14.203125 13.4265625 14.203125 20.2265625 14.203125 C20.5565625 13.213125 20.8865625 12.223125 21.2265625 11.203125 C13.9665625 11.203125 6.7065625 11.203125 -0.7734375 11.203125 Z M-2.7734375 25.203125 C-2.4434375 26.523125 -2.1134375 27.843125 -1.7734375 29.203125 C5.4865625 29.203125 12.7465625 29.203125 20.2265625 29.203125 C20.5565625 27.883125 20.8865625 26.563125 21.2265625 25.203125 C13.3065625 25.203125 5.3865625 25.203125 -2.7734375 25.203125 Z " fill="#06215C" transform="translate(385.7734375,132.796875)"/>
<path d="M0 0 C0.93691177 -0.00524185 1.87382355 -0.0104837 2.83912659 -0.0158844 C4.81860362 -0.02230154 6.7981188 -0.02097159 8.77758789 -0.01245117 C11.80228789 -0.00394595 14.82509615 -0.03269906 17.84960938 -0.06445312 C19.77473902 -0.0660654 21.699872 -0.0654871 23.625 -0.0625 C24.52721786 -0.07373398 25.42943573 -0.08496796 26.35899353 -0.09654236 C30.39923675 -0.05182652 32.8396654 0.14001758 36.43994141 2.10009766 C38.84253331 4.99155742 39.05257944 6.53377852 39.15625 10.265625 C39.19427734 11.39419922 39.23230469 12.52277344 39.27148438 13.68554688 C39.28630859 14.86052734 39.30113281 16.03550781 39.31640625 17.24609375 C39.35830078 18.40947266 39.40019531 19.57285156 39.44335938 20.77148438 C39.7353025 32.17024139 39.7353025 32.17024139 37.37890625 37.43359375 C34.56063868 39.24076857 32.35569689 39.68528365 29.04101562 39.69238281 C28.19333618 39.69868713 27.34565674 39.70499146 26.47229004 39.71148682 C25.56491089 39.70743835 24.65753174 39.70338989 23.72265625 39.69921875 C22.7833728 39.7011322 21.84408936 39.70304565 20.87634277 39.70501709 C18.89265678 39.70637663 16.90896181 39.70269635 14.92529297 39.69433594 C11.89009606 39.68363321 8.85549102 39.69423912 5.8203125 39.70703125 C3.89192578 39.70570961 1.96353942 39.70314714 0.03515625 39.69921875 C-1.32591248 39.70529144 -1.32591248 39.70529144 -2.71447754 39.71148682 C-3.56215698 39.7051825 -4.40983643 39.69887817 -5.28320312 39.69238281 C-6.02614624 39.69079163 -6.76908936 39.68920044 -7.5345459 39.68756104 C-9.96536728 39.39168998 -11.55138602 38.73312399 -13.62109375 37.43359375 C-16.430172 31.96655856 -15.91636454 25.86570109 -15.87109375 19.87109375 C-15.87882812 18.84306641 -15.8865625 17.81503906 -15.89453125 16.75585938 C-15.89195312 15.76134766 -15.889375 14.76683594 -15.88671875 13.7421875 C-15.88446289 12.84298584 -15.88220703 11.94378418 -15.87988281 11.01733398 C-15.50042989 7.22889035 -14.5816049 4.55908935 -12.09741211 1.64819336 C-8.17605095 -0.27517959 -4.31060769 -0.01399447 0 0 Z M-1.62109375 12.43359375 C-1.72084407 14.94495479 -1.75991558 17.4226279 -1.74609375 19.93359375 C-1.74996094 20.63613281 -1.75382812 21.33867187 -1.7578125 22.0625 C-2.06500306 25.53788183 -2.06500306 25.53788183 -0.62109375 28.43359375 C3.34455533 28.84503143 7.33401397 28.95032221 11.31640625 29.12109375 C12.43982422 29.18103516 13.56324219 29.24097656 14.72070312 29.30273438 C15.79255859 29.34978516 16.86441406 29.39683594 17.96875 29.4453125 C18.95738037 29.49131592 19.94601074 29.53731934 20.96459961 29.5847168 C23.56430434 29.68922954 23.56430434 29.68922954 25.37890625 27.43359375 C25.55054356 24.87067058 25.61155183 22.43013518 25.56640625 19.87109375 C25.56576172 19.17306641 25.56511719 18.47503906 25.56445312 17.75585938 C25.83372005 14.30509332 25.83372005 14.30509332 24.37890625 11.43359375 C22.53731602 11.33399754 20.69193658 11.30278964 18.84765625 11.30078125 C17.16736328 11.29884766 17.16736328 11.29884766 15.453125 11.296875 C13.68388672 11.30267578 13.68388672 11.30267578 11.87890625 11.30859375 C10.69941406 11.30472656 9.51992188 11.30085937 8.3046875 11.296875 C7.18449219 11.29816406 6.06429688 11.29945313 4.91015625 11.30078125 C3.35651367 11.30247314 3.35651367 11.30247314 1.77148438 11.30419922 C-0.57407198 11.16394222 -0.57407198 11.16394222 -1.62109375 12.43359375 Z " fill="#05225C" transform="translate(322.62109375,132.56640625)"/>
<path d="M0 0 C14.85 0 29.7 0 45 0 C46.50662097 3.01324195 46.17770373 5.68286377 46 9 C44 11 44 11 41.01904297 11.22705078 C39.77268066 11.21657715 38.52631836 11.20610352 37.2421875 11.1953125 C36.57913605 11.1924826 35.91608459 11.18965271 35.23294067 11.18673706 C33.11344417 11.17553435 30.99436896 11.15043051 28.875 11.125 C27.43880818 11.11497028 26.00260975 11.10584441 24.56640625 11.09765625 C21.04413372 11.075595 17.52210797 11.04106494 14 11 C14 11.99 14 12.98 14 14 C19.94 14 25.88 14 32 14 C32 17.3 32 20.6 32 24 C27.85583353 25.03604162 24.97857647 24.91488137 20.75 24.5625 C19.48671875 24.46066406 18.2234375 24.35882813 16.921875 24.25390625 C15.95765625 24.17011719 14.9934375 24.08632812 14 24 C14 25.65 14 27.3 14 29 C14.74121094 28.9278125 15.48242188 28.855625 16.24609375 28.78125 C22.89923801 28.19492639 29.51003899 27.86943242 36.1875 27.8125 C37.30112915 27.79316406 37.30112915 27.79316406 38.43725586 27.7734375 C40.293038 27.76999489 42.14832493 27.876555 44 28 C46 30 46 30 46.1953125 32.1640625 C46.17210937 32.97617188 46.14890625 33.78828125 46.125 34.625 C46.10695313 35.44226563 46.08890625 36.25953125 46.0703125 37.1015625 C46.04710937 37.72804687 46.02390625 38.35453125 46 39 C39.46721214 39.02527002 32.93443679 39.04283292 26.40161133 39.05493164 C24.17732268 39.05997317 21.95303737 39.06680623 19.72875977 39.07543945 C16.53921691 39.08751298 13.34971771 39.09322996 10.16015625 39.09765625 C8.65860741 39.10539818 8.65860741 39.10539818 7.12672424 39.11329651 C6.20584518 39.11337204 5.28496613 39.11344757 4.33618164 39.11352539 C3.52121719 39.115746 2.70625275 39.11796661 1.86659241 39.12025452 C0 39 0 39 -1 38 C-1.1009825 35.35711643 -1.13970742 32.74093041 -1.1328125 30.09765625 C-1.13376923 29.30475693 -1.13472595 28.5118576 -1.13571167 27.69493103 C-1.13639351 26.0144747 -1.13453896 24.33401575 -1.13037109 22.65356445 C-1.1250299 20.07692555 -1.13031228 17.50046152 -1.13671875 14.92382812 C-1.13605783 13.29427045 -1.13477638 11.66471288 -1.1328125 10.03515625 C-1.13483673 9.26115982 -1.13686096 8.48716339 -1.13894653 7.68971252 C-1.11495583 2.22991166 -1.11495583 2.22991166 0 0 Z " fill="#06225C" transform="translate(481,133)"/>
<path d="M0 0 C6.39042521 -0.02290475 12.78070909 -0.04283313 19.17114258 -0.05493164 C21.34692873 -0.05997308 23.52271147 -0.06680607 25.69848633 -0.07543945 C28.81853067 -0.08751338 31.93853038 -0.09323005 35.05859375 -0.09765625 C36.52733192 -0.10539818 36.52733192 -0.10539818 38.02574158 -0.11329651 C39.37702904 -0.11340981 39.37702904 -0.11340981 40.75561523 -0.11352539 C41.95141457 -0.11685631 41.95141457 -0.11685631 43.17137146 -0.12025452 C45 0 45 0 46 1 C46.27314815 6.73611111 46.27314815 6.73611111 46 9 C44 11 44 11 41.01904297 11.22705078 C39.77268066 11.21657715 38.52631836 11.20610352 37.2421875 11.1953125 C36.57913605 11.1924826 35.91608459 11.18965271 35.23294067 11.18673706 C33.11344417 11.17553435 30.99436896 11.15043051 28.875 11.125 C27.43880818 11.11497028 26.00260975 11.10584441 24.56640625 11.09765625 C21.04413372 11.075595 17.52210797 11.04106494 14 11 C14 11.99 14 12.98 14 14 C19.94 14 25.88 14 32 14 C32 17.3 32 20.6 32 24 C27.85583353 25.03604162 24.97857647 24.91488137 20.75 24.5625 C19.48671875 24.46066406 18.2234375 24.35882813 16.921875 24.25390625 C15.95765625 24.17011719 14.9934375 24.08632812 14 24 C14 25.65 14 27.3 14 29 C15.08539062 28.83886719 16.17078125 28.67773438 17.2890625 28.51171875 C22.64877632 27.84441194 27.980115 27.81607277 33.375 27.8125 C34.37144531 27.80025391 35.36789062 27.78800781 36.39453125 27.77539062 C37.34457031 27.77345703 38.29460938 27.77152344 39.2734375 27.76953125 C40.13372559 27.76542236 40.99401367 27.76131348 41.88037109 27.75708008 C44 28 44 28 46 30 C46 32.97 46 35.94 46 39 C30.82 39 15.64 39 0 39 C0 26.13 0 13.26 0 0 Z " fill="#05225C" transform="translate(639,133)"/>
<path d="M0 0 C1.17443161 -0.00855011 1.17443161 -0.00855011 2.37258911 -0.01727295 C4.02848971 -0.02671345 5.68440901 -0.03325316 7.34033203 -0.03710938 C9.86654616 -0.04681252 12.39194558 -0.07784282 14.91796875 -0.109375 C16.52864101 -0.11590575 18.13931908 -0.12115594 19.75 -0.125 C20.8783577 -0.1435202 20.8783577 -0.1435202 22.0295105 -0.16241455 C26.5341988 -0.14339207 29.43426401 0.4012447 33.0078125 3.203125 C34.33010439 5.84770879 34.10458444 7.88073801 34.0703125 10.828125 C34.06128906 11.83101562 34.05226563 12.83390625 34.04296875 13.8671875 C34.03136719 14.63804687 34.01976562 15.40890625 34.0078125 16.203125 C32.42855275 16.59492608 30.84412456 16.96593236 29.2578125 17.328125 C28.37609375 17.53695312 27.494375 17.74578125 26.5859375 17.9609375 C23.67905757 18.23400804 22.44119902 17.73820528 20.0078125 16.203125 C20.0078125 14.553125 20.0078125 12.903125 20.0078125 11.203125 C10.1078125 11.698125 10.1078125 11.698125 0.0078125 12.203125 C0.0078125 17.813125 0.0078125 23.423125 0.0078125 29.203125 C0.6678125 28.873125 1.3278125 28.543125 2.0078125 28.203125 C3.38329406 28.12003862 4.76267046 28.09576484 6.140625 28.10546875 C6.94628906 28.10869141 7.75195312 28.11191406 8.58203125 28.11523438 C9.42378906 28.12361328 10.26554688 28.13199219 11.1328125 28.140625 C11.98230469 28.14513672 12.83179688 28.14964844 13.70703125 28.15429688 C15.80732159 28.16609626 17.9075758 28.18403194 20.0078125 28.203125 C20.0078125 26.223125 20.0078125 24.243125 20.0078125 22.203125 C24.96128237 20.60523149 29.14063665 21.92005686 34.0078125 23.203125 C34.14391163 24.93007175 34.24030478 26.66017222 34.3203125 28.390625 C34.37832031 29.35355469 34.43632813 30.31648438 34.49609375 31.30859375 C33.80400274 35.41130925 32.25958714 36.65168387 29.0078125 39.203125 C26.12664766 39.92113738 23.34104498 39.90510098 20.3828125 39.8671875 C19.1460376 39.87436295 19.1460376 39.87436295 17.88427734 39.88168335 C16.14613937 39.88507622 14.40793706 39.87591653 12.66992188 39.85498047 C10.01547425 39.82820229 7.36525425 39.85474496 4.7109375 39.88671875 C3.01821987 39.88341454 1.32550487 39.87700806 -0.3671875 39.8671875 C-1.15689941 39.87730865 -1.94661133 39.88742981 -2.76025391 39.89785767 C-6.81337517 39.81202828 -8.5923564 39.48592681 -11.99414062 37.07983398 C-14.41234933 33.59819259 -14.6116009 31.72255721 -14.5859375 27.51171875 C-14.58335937 26.23748047 -14.58078125 24.96324219 -14.578125 23.65039062 C-14.56362305 22.99208252 -14.54912109 22.33377441 -14.53417969 21.65551758 C-14.49222449 19.64240006 -14.49312218 17.63262289 -14.5 15.61914062 C-14.38828948 4.58772663 -14.38828948 4.58772663 -10.9921875 1.203125 C-7.29657296 -0.02874651 -3.85059025 0.021638 0 0 Z " fill="#05215B" transform="translate(704.9921875,132.796875)"/>
<path d="M0 0 C1.093125 0.00257813 2.18625 0.00515625 3.3125 0.0078125 C4.405625 0.00523437 5.49875 0.00265625 6.625 0 C9.3125 0.1328125 9.3125 0.1328125 10.3125 1.1328125 C10.3125 5.0928125 10.3125 9.0528125 10.3125 13.1328125 C18.2325 12.8028125 26.1525 12.4728125 34.3125 12.1328125 C34.3125 9.1628125 34.3125 6.1928125 34.3125 3.1328125 C34.6425 2.1428125 34.9725 1.1528125 35.3125 0.1328125 C39.6025 0.1328125 43.8925 0.1328125 48.3125 0.1328125 C48.3125 13.0028125 48.3125 25.8728125 48.3125 39.1328125 C44.0225 39.1328125 39.7325 39.1328125 35.3125 39.1328125 C34.3125 35.1328125 34.3125 35.1328125 35.3125 25.1328125 C27.0625 25.1328125 18.8125 25.1328125 10.3125 25.1328125 C10.333125 27.2571875 10.35375 29.3815625 10.375 31.5703125 C10.39623783 33.75780861 10.38508946 35.94641797 10.3125 38.1328125 C9.3125 39.1328125 9.3125 39.1328125 6.37109375 39.23046875 C5.17613281 39.21886719 3.98117187 39.20726562 2.75 39.1953125 C0.95369141 39.18177734 0.95369141 39.18177734 -0.87890625 39.16796875 C-1.80574219 39.15636719 -2.73257813 39.14476562 -3.6875 39.1328125 C-3.71214849 33.73934262 -3.73033531 28.34590525 -3.74243164 22.95239258 C-3.74747231 21.11612375 -3.75430477 19.27985896 -3.76293945 17.44360352 C-3.77501672 14.81004849 -3.78073081 12.17654634 -3.78515625 9.54296875 C-3.79031754 8.71692642 -3.79547882 7.89088409 -3.80079651 7.03981018 C-3.80099205 5.07044882 -3.74954152 3.10119636 -3.6875 1.1328125 C-2.6875 0.1328125 -2.6875 0.1328125 0 0 Z " fill="#06235D" transform="translate(751.6875,132.8671875)"/>
<path d="M0 0 C2.60478883 -0.0809313 5.20706653 -0.14045434 7.8125 -0.1875 C8.55048828 -0.21263672 9.28847656 -0.23777344 10.04882812 -0.26367188 C15.56544535 -0.33855808 15.56544535 -0.33855808 17.52734375 1.18994141 C20.88153053 5.31261063 23.44318534 10.02350815 26.1875 14.5625 C26.84169922 15.62919922 27.49589844 16.69589844 28.16992188 17.79492188 C28.78802734 18.81263672 29.40613281 19.83035156 30.04296875 20.87890625 C30.61039795 21.8129126 31.17782715 22.74691895 31.76245117 23.70922852 C33 26 33 26 33 28 C35.72022349 25.56403199 37.30769606 22.93219477 39.06640625 19.74609375 C39.63423828 18.72708984 40.20207031 17.70808594 40.78710938 16.65820312 C41.37298828 15.59537109 41.95886719 14.53253906 42.5625 13.4375 C43.72746912 11.33037006 44.89530111 9.22481959 46.06640625 7.12109375 C46.8389978 5.72008423 46.8389978 5.72008423 47.62719727 4.29077148 C49 2 49 2 51 0 C53.58064129 -0.14497985 56.04943884 -0.18677545 58.625 -0.125 C59.33140625 -0.11597656 60.0378125 -0.10695313 60.765625 -0.09765625 C62.51056098 -0.07407603 64.25532295 -0.03820461 66 0 C65.35225779 3.26705556 64.15862506 5.68875181 62.4453125 8.53515625 C61.91784424 9.41848633 61.39037598 10.30181641 60.84692383 11.21191406 C60.27868896 12.15260742 59.7104541 13.09330078 59.125 14.0625 C57.94314603 16.03724335 56.76217327 18.01251433 55.58203125 19.98828125 C54.98471191 20.98682129 54.38739258 21.98536133 53.77197266 23.01416016 C50.59484285 28.36774208 47.50593593 33.77259915 44.42822266 39.18383789 C44.00460449 39.92239014 43.58098633 40.66094238 43.14453125 41.421875 C42.77690674 42.06737305 42.40928223 42.71287109 42.03051758 43.37792969 C40.55552076 45.69962569 39.37500597 46.85978613 36.78515625 47.828125 C33.2617769 48.37407187 31.35271535 48.31118931 28 47 C23.84598109 42.59074624 21.22868255 36.83299406 18.39697266 31.53222656 C16.19266819 27.53658764 13.6981936 23.74530676 11.1875 19.9375 C10.49950317 18.87776978 10.49950317 18.87776978 9.79760742 17.79663086 C6.91910631 13.36400203 3.97771265 8.9797514 0.92578125 4.6640625 C0 3 0 3 0 0 Z " fill="#05225C" transform="translate(244,125)"/>
<path d="M0 0 C5.49931963 -0.0229457 10.99847339 -0.04286218 16.49780273 -0.05493164 C18.36890221 -0.05996279 20.23999775 -0.06678835 22.11108398 -0.07543945 C24.79932628 -0.08755829 27.48751664 -0.09324047 30.17578125 -0.09765625 C31.01337479 -0.10281754 31.85096832 -0.10797882 32.71394348 -0.11329651 C36.06375742 -0.11362064 38.79946456 -0.06684515 42 1 C43.06385483 4.19156448 43.16677982 6.58497476 43.1875 9.9375 C43.20167969 10.97777344 43.21585938 12.01804688 43.23046875 13.08984375 C43.00006424 15.9991888 42.71295082 17.64813505 41 20 C37.375 20.75 37.375 20.75 34 21 C34.03780298 23.37233611 34.03780298 23.37233611 35 26 C38.13426073 28.43775835 41.39865954 30.33784287 45 32 C45 32.66 45 33.32 45 34 C38.48043085 34.53052552 33.64706932 34.77137446 28.48828125 30.4375 C26.29665488 28.32065353 24.15451412 26.15451412 22 24 C17.80375674 21.48935128 13.80386315 21.42387028 9 21 C9 25.29 9 29.58 9 34 C6.03 34 3.06 34 0 34 C0 22.78 0 11.56 0 0 Z M11 8 C11.33 9.65 11.66 11.3 12 13 C18.6 13 25.2 13 32 13 C32.33 11.35 32.66 9.7 33 8 C31.44926853 6.44926853 29.96937747 6.87030872 27.81640625 6.8671875 C26.97142578 6.86589844 26.12644531 6.86460937 25.25585938 6.86328125 C24.36705078 6.86714844 23.47824219 6.87101563 22.5625 6.875 C21.67755859 6.87113281 20.79261719 6.86726562 19.88085938 6.86328125 C18.61145508 6.86521484 18.61145508 6.86521484 17.31640625 6.8671875 C16.53724854 6.86831543 15.75809082 6.86944336 14.95532227 6.87060547 C12.92025512 6.87854847 12.92025512 6.87854847 11 8 Z " fill="#05225C" transform="translate(536,136)"/>
<path d="M0 0 C0.88602402 0.00222061 1.77204803 0.00444122 2.68492126 0.00672913 C3.68588333 0.00680466 4.6868454 0.00688019 5.71813965 0.00695801 C6.80666733 0.01211929 7.89519501 0.01728058 9.01670837 0.02259827 C10.67928932 0.02472069 10.67928932 0.02472069 12.37545776 0.02688599 C15.93168281 0.03250418 19.48784596 0.04505977 23.04405212 0.05775452 C25.44834809 0.06276717 27.85264504 0.06733048 30.25694275 0.07142639 C36.16516716 0.08247952 42.07335522 0.09923535 47.98155212 0.12025452 C48.00843363 1.76600018 48.02789336 3.41186865 48.04405212 5.05775452 C48.05565369 5.97427795 48.06725525 6.89080139 48.07920837 7.83509827 C47.98155212 10.12025452 47.98155212 10.12025452 46.98155212 11.12025452 C44.11887645 11.1935062 41.28083313 11.21263657 38.41905212 11.18275452 C37.61274353 11.1782428 36.80643494 11.17373108 35.97569275 11.16908264 C33.97761456 11.15725969 31.97957429 11.13932366 29.98155212 11.12025452 C29.98678894 11.93292786 29.99202576 12.7456012 29.99742126 13.582901 C30.01812206 17.24117774 30.03119015 20.89944219 30.04405212 24.55775452 C30.05243103 25.83714905 30.06080994 27.11654358 30.06944275 28.43470764 C30.07266541 29.64964905 30.07588806 30.86459045 30.07920837 32.11634827 C30.08444519 33.24226379 30.08968201 34.36817932 30.09507751 35.5282135 C29.98155212 38.12025452 29.98155212 38.12025452 28.98155212 39.12025452 C24.69155212 39.12025452 20.40155212 39.12025452 15.98155212 39.12025452 C15.98155212 29.88025452 15.98155212 20.64025452 15.98155212 11.12025452 C10.10272209 11.15983221 10.10272209 11.15983221 4.22398376 11.21034241 C3.49558289 11.21283997 2.76718201 11.21533752 2.01670837 11.21791077 C1.26784363 11.22314758 0.51897888 11.2283844 -0.25257874 11.23377991 C-2.01844788 11.12025452 -2.01844788 11.12025452 -3.01844788 10.12025452 C-3.11635357 8.62287327 -3.14819652 7.1208256 -3.14344788 5.62025452 C-3.146026 4.80556702 -3.14860413 3.99087952 -3.15126038 3.15150452 C-2.97189085 0.40820593 -2.74550073 0.16357067 0 0 Z " fill="#04124F" transform="translate(427.01844787597656,132.87974548339844)"/>
<path d="M0 0 C14.85 0 29.7 0 45 0 C45 2.31 45 4.62 45 7 C44.505 5.02 44.505 5.02 44 3 C30.47 3 16.94 3 3 3 C3 14.22 3 25.44 3 37 C15.87 36.67 28.74 36.34 42 36 C42.33 34.68 42.66 33.36 43 32 C42.06615479 32.00523682 41.13230957 32.01047363 40.17016602 32.01586914 C36.71687204 32.0328762 33.26362233 32.04543302 29.81030273 32.05493164 C28.31355082 32.05997121 26.81680384 32.06680287 25.32006836 32.07543945 C23.17300193 32.08752159 21.02600038 32.09323191 18.87890625 32.09765625 C16.93866577 32.10551147 16.93866577 32.10551147 14.95922852 32.11352539 C12 32 12 32 11 31 C10.8671875 29.1875 10.8671875 29.1875 10.875 27 C10.87242187 26.278125 10.86984375 25.55625 10.8671875 24.8125 C11 23 11 23 12 22 C13.34267413 21.91368126 14.68974322 21.89293527 16.03515625 21.90234375 C16.84404297 21.90556641 17.65292969 21.90878906 18.48632812 21.91210938 C19.33646484 21.92048828 20.18660156 21.92886719 21.0625 21.9375 C21.91650391 21.94201172 22.77050781 21.94652344 23.65039062 21.95117188 C25.76695663 21.96299627 27.88348685 21.98093231 30 22 C30 20.35 30 18.7 30 17 C28.71222656 17.01160156 27.42445313 17.02320313 26.09765625 17.03515625 C24.41927228 17.0445327 22.74088674 17.05363305 21.0625 17.0625 C19.78729492 17.07506836 19.78729492 17.07506836 18.48632812 17.08789062 C17.67744141 17.09111328 16.86855469 17.09433594 16.03515625 17.09765625 C15.2862915 17.10289307 14.53742676 17.10812988 13.76586914 17.11352539 C12 17 12 17 11 16 C11 13.36 11 10.72 11 8 C21.23 8.33 31.46 8.66 42 9 C42 9.33 42 9.66 42 10 C32.43 10 22.86 10 13 10 C13 11.32 13 12.64 13 14 C19.27 14 25.54 14 32 14 C32 17.3 32 20.6 32 24 C27.85583353 25.03604162 24.97857647 24.91488137 20.75 24.5625 C19.48671875 24.46066406 18.2234375 24.35882813 16.921875 24.25390625 C15.95765625 24.17011719 14.9934375 24.08632812 14 24 C14 25.65 14 27.3 14 29 C14.74121094 28.9278125 15.48242188 28.855625 16.24609375 28.78125 C22.89923801 28.19492639 29.51003899 27.86943242 36.1875 27.8125 C37.30112915 27.79316406 37.30112915 27.79316406 38.43725586 27.7734375 C40.293038 27.76999489 42.14832493 27.876555 44 28 C46 30 46 30 46.1953125 32.1640625 C46.17210937 32.97617188 46.14890625 33.78828125 46.125 34.625 C46.10695313 35.44226563 46.08890625 36.25953125 46.0703125 37.1015625 C46.04710937 37.72804687 46.02390625 38.35453125 46 39 C39.46721214 39.02527002 32.93443679 39.04283292 26.40161133 39.05493164 C24.17732268 39.05997317 21.95303737 39.06680623 19.72875977 39.07543945 C16.53921691 39.08751298 13.34971771 39.09322996 10.16015625 39.09765625 C8.65860741 39.10539818 8.65860741 39.10539818 7.12672424 39.11329651 C6.20584518 39.11337204 5.28496613 39.11344757 4.33618164 39.11352539 C3.52121719 39.115746 2.70625275 39.11796661 1.86659241 39.12025452 C0 39 0 39 -1 38 C-1.1009825 35.35711643 -1.13970742 32.74093041 -1.1328125 30.09765625 C-1.13376923 29.30475693 -1.13472595 28.5118576 -1.13571167 27.69493103 C-1.13639351 26.0144747 -1.13453896 24.33401575 -1.13037109 22.65356445 C-1.1250299 20.07692555 -1.13031228 17.50046152 -1.13671875 14.92382812 C-1.13605783 13.29427045 -1.13477638 11.66471288 -1.1328125 10.03515625 C-1.13483673 9.26115982 -1.13686096 8.48716339 -1.13894653 7.68971252 C-1.11495583 2.22991166 -1.11495583 2.22991166 0 0 Z " fill="#020D4A" transform="translate(481,133)"/>
<path d="M0 0 C6.39042521 -0.02290475 12.78070909 -0.04283313 19.17114258 -0.05493164 C21.34692873 -0.05997308 23.52271147 -0.06680607 25.69848633 -0.07543945 C28.81853067 -0.08751338 31.93853038 -0.09323005 35.05859375 -0.09765625 C36.52733192 -0.10539818 36.52733192 -0.10539818 38.02574158 -0.11329651 C39.37702904 -0.11340981 39.37702904 -0.11340981 40.75561523 -0.11352539 C41.95141457 -0.11685631 41.95141457 -0.11685631 43.17137146 -0.12025452 C45 0 45 0 46 1 C46.1328125 2.8125 46.1328125 2.8125 46.125 5 C46.12886719 6.0828125 46.12886719 6.0828125 46.1328125 7.1875 C46 9 46 9 45 10 C42.6243148 10.0883967 40.27791326 10.11530305 37.90234375 10.09765625 C36.83905602 10.09553383 36.83905602 10.09553383 35.75428772 10.09336853 C33.48198288 10.08775443 31.20977525 10.07519963 28.9375 10.0625 C27.40039204 10.05748681 25.86328255 10.05292359 24.32617188 10.04882812 C20.55074358 10.03778042 16.77538829 10.02050641 13 10 C12.67 11.98 12.34 13.96 12 16 C11.67 16 11.34 16 11 16 C11 13.36 11 10.72 11 8 C21.56 8 32.12 8 43 8 C43 6.35 43 4.7 43 3 C29.8 3 16.6 3 3 3 C2.67 14.22 2.34 25.44 2 37 C15.53 37 29.06 37 43 37 C43 35.02 43 33.04 43 31 C32.44 31 21.88 31 11 31 C10 21 10 21 11 19 C11.48984375 19.32742187 11.9796875 19.65484375 12.484375 19.9921875 C16.04269563 21.41772589 19.48203011 21.21154348 23.25 21.125 C23.99507812 21.11597656 24.74015625 21.10695312 25.5078125 21.09765625 C27.33868059 21.07418358 29.16938238 21.03831525 31 21 C30.67 22.32 30.34 23.64 30 25 C24.72 24.67 19.44 24.34 14 24 C14 25.65 14 27.3 14 29 C15.08539062 28.83886719 16.17078125 28.67773438 17.2890625 28.51171875 C22.64877632 27.84441194 27.980115 27.81607277 33.375 27.8125 C34.37144531 27.80025391 35.36789062 27.78800781 36.39453125 27.77539062 C37.34457031 27.77345703 38.29460938 27.77152344 39.2734375 27.76953125 C40.13372559 27.76542236 40.99401367 27.76131348 41.88037109 27.75708008 C44 28 44 28 46 30 C46 32.97 46 35.94 46 39 C30.82 39 15.64 39 0 39 C0 26.13 0 13.26 0 0 Z " fill="#020C49" transform="translate(639,133)"/>
<path d="M0 0 C1.093125 0.00257813 2.18625 0.00515625 3.3125 0.0078125 C4.405625 0.00523437 5.49875 0.00265625 6.625 0 C9.3125 0.1328125 9.3125 0.1328125 10.3125 1.1328125 C10.3125 5.0928125 10.3125 9.0528125 10.3125 13.1328125 C18.2325 12.8028125 26.1525 12.4728125 34.3125 12.1328125 C34.3125 9.1628125 34.3125 6.1928125 34.3125 3.1328125 C34.6425 2.1428125 34.9725 1.1528125 35.3125 0.1328125 C39.6025 0.1328125 43.8925 0.1328125 48.3125 0.1328125 C48.3125 1.4528125 48.3125 2.7728125 48.3125 4.1328125 C45.0125 3.8028125 41.7125 3.4728125 38.3125 3.1328125 C38.33570313 3.90367187 38.35890625 4.67453125 38.3828125 5.46875 C38.40085937 6.47164062 38.41890625 7.47453125 38.4375 8.5078125 C38.46070313 9.50554687 38.48390625 10.50328125 38.5078125 11.53125 C38.3125 14.1328125 38.3125 14.1328125 36.3125 16.1328125 C33.51513672 16.35986328 33.51513672 16.35986328 29.9921875 16.328125 C28.10693359 16.31845703 28.10693359 16.31845703 26.18359375 16.30859375 C24.86488281 16.29183594 23.54617188 16.27507812 22.1875 16.2578125 C20.84766279 16.24778233 19.50781848 16.23865654 18.16796875 16.23046875 C14.88263427 16.20683325 11.59765535 16.17388484 8.3125 16.1328125 C6.99020811 13.48822871 7.21572806 11.45519949 7.25 8.5078125 C7.25902344 7.50492188 7.26804687 6.50203125 7.27734375 5.46875 C7.28894531 4.69789063 7.30054688 3.92703125 7.3125 3.1328125 C4.6725 3.1328125 2.0325 3.1328125 -0.6875 3.1328125 C-0.6875 14.3528125 -0.6875 25.5728125 -0.6875 37.1328125 C2.7775 36.6378125 2.7775 36.6378125 6.3125 36.1328125 C6.37308594 35.20597656 6.43367187 34.27914062 6.49609375 33.32421875 C6.57988281 32.12667969 6.66367187 30.92914063 6.75 29.6953125 C6.83121094 28.50035156 6.91242187 27.30539063 6.99609375 26.07421875 C7.3125 23.1328125 7.3125 23.1328125 8.3125 22.1328125 C10.3730531 22.03287718 12.4370259 22.00200344 14.5 22 C15.75554688 21.99871094 17.01109375 21.99742187 18.3046875 21.99609375 C18.96178711 21.99818848 19.61888672 22.0002832 20.29589844 22.00244141 C22.30411335 22.00779016 24.31210459 22.00249559 26.3203125 21.99609375 C27.57585938 21.99738281 28.83140625 21.99867188 30.125 22 C31.28644531 22.00112793 32.44789063 22.00225586 33.64453125 22.00341797 C36.3125 22.1328125 36.3125 22.1328125 37.3125 23.1328125 C37.38521741 25.48594805 37.39620868 27.84114918 37.375 30.1953125 C37.36597656 31.48566406 37.35695313 32.77601563 37.34765625 34.10546875 C37.33605469 35.10449219 37.32445312 36.10351562 37.3125 37.1328125 C40.9425 36.8028125 44.5725 36.4728125 48.3125 36.1328125 C48.3125 37.1228125 48.3125 38.1128125 48.3125 39.1328125 C44.0225 39.1328125 39.7325 39.1328125 35.3125 39.1328125 C34.3125 35.1328125 34.3125 35.1328125 35.3125 25.1328125 C27.0625 25.1328125 18.8125 25.1328125 10.3125 25.1328125 C10.333125 27.2571875 10.35375 29.3815625 10.375 31.5703125 C10.39623783 33.75780861 10.38508946 35.94641797 10.3125 38.1328125 C9.3125 39.1328125 9.3125 39.1328125 6.37109375 39.23046875 C5.17613281 39.21886719 3.98117187 39.20726562 2.75 39.1953125 C0.95369141 39.18177734 0.95369141 39.18177734 -0.87890625 39.16796875 C-1.80574219 39.15636719 -2.73257813 39.14476562 -3.6875 39.1328125 C-3.71214849 33.73934262 -3.73033531 28.34590525 -3.74243164 22.95239258 C-3.74747231 21.11612375 -3.75430477 19.27985896 -3.76293945 17.44360352 C-3.77501672 14.81004849 -3.78073081 12.17654634 -3.78515625 9.54296875 C-3.79031754 8.71692642 -3.79547882 7.89088409 -3.80079651 7.03981018 C-3.80099205 5.07044882 -3.74954152 3.10119636 -3.6875 1.1328125 C-2.6875 0.1328125 -2.6875 0.1328125 0 0 Z " fill="#03114E" transform="translate(751.6875,132.8671875)"/>
<path d="M0 0 C2.60478883 -0.0809313 5.20706653 -0.14045434 7.8125 -0.1875 C8.55048828 -0.21263672 9.28847656 -0.23777344 10.04882812 -0.26367188 C15.56544535 -0.33855808 15.56544535 -0.33855808 17.52734375 1.18994141 C20.88153053 5.31261063 23.44318534 10.02350815 26.1875 14.5625 C26.84169922 15.62919922 27.49589844 16.69589844 28.16992188 17.79492188 C28.78802734 18.81263672 29.40613281 19.83035156 30.04296875 20.87890625 C30.61039795 21.8129126 31.17782715 22.74691895 31.76245117 23.70922852 C33 26 33 26 33 28 C35.72022349 25.56403199 37.30769606 22.93219477 39.06640625 19.74609375 C39.63423828 18.72708984 40.20207031 17.70808594 40.78710938 16.65820312 C41.37298828 15.59537109 41.95886719 14.53253906 42.5625 13.4375 C43.72746912 11.33037006 44.89530111 9.22481959 46.06640625 7.12109375 C46.8389978 5.72008423 46.8389978 5.72008423 47.62719727 4.29077148 C49 2 49 2 51 0 C53.58064129 -0.14497985 56.04943884 -0.18677545 58.625 -0.125 C59.33140625 -0.11597656 60.0378125 -0.10695313 60.765625 -0.09765625 C62.51056098 -0.07407603 64.25532295 -0.03820461 66 0 C65.34696287 3.3373207 64.08847826 5.80548738 62.33984375 8.7109375 C61.7969873 9.62012939 61.25413086 10.52932129 60.69482422 11.46606445 C59.82494873 12.90598755 59.82494873 12.90598755 58.9375 14.375 C57.75022471 16.35482306 56.56402662 18.33529251 55.37890625 20.31640625 C54.80027832 21.28336426 54.22165039 22.25032227 53.62548828 23.24658203 C52.20305838 25.65603899 50.81950925 28.07936122 49.46484375 30.52734375 C49.10463135 31.17719238 48.74441895 31.82704102 48.37329102 32.49658203 C47.43763282 34.19856924 46.51143959 35.90575011 45.5859375 37.61328125 C44 40 44 40 41 41 C41 36.70860957 41.3731516 35.9997912 43.75 32.6875 C45.97557734 29.49473251 48.03458591 26.30187476 49.92578125 22.89453125 C51.77903065 19.62607321 53.76614797 16.43696381 55.73046875 13.234375 C57.12492271 10.9480855 57.12492271 10.9480855 58 8 C58.66 8 59.32 8 60 8 C60.33 6.35 60.66 4.7 61 3 C58.03 2.67 55.06 2.34 52 2 C51.79375 2.78375 51.5875 3.5675 51.375 4.375 C49.86735764 8.34969351 47.88715792 11.65836503 45.65625 15.26171875 C43.38724539 19.01306836 41.34468268 22.87457902 39.296875 26.75 C38 29 38 29 36 31 C33.6875 31.125 33.6875 31.125 31 30 C27.26169811 25.56358149 25.04435741 20.11855476 22.89453125 14.78515625 C22.13069813 12.81564079 22.13069813 12.81564079 20 12 C18.9296875 10.22265625 18.9296875 10.22265625 17.875 8.0625 C17.52179688 7.35222656 17.16859375 6.64195312 16.8046875 5.91015625 C16 4 16 4 16 2 C10.06 2.495 10.06 2.495 4 3 C5.3921875 4.546875 5.3921875 4.546875 6.8125 6.125 C10.38589839 10.29677406 12.95072957 14.54379374 14 20 C14.66 20 15.32 20 16 20 C16.43570312 20.845625 16.87140625 21.69125 17.3203125 22.5625 C20.44597037 28.51613404 23.56478236 34.18361049 27.8359375 39.4140625 C29 41 29 41 30 44 C34.21878192 44.19622241 37.17010894 43.80230168 41 42 C40.125 45.875 40.125 45.875 39 47 C34.9595453 48.39403142 32.02020519 48.50884275 28 47 C23.83561171 42.60632674 21.22624007 36.82842191 18.39697266 31.53222656 C16.19266819 27.53658764 13.6981936 23.74530676 11.1875 19.9375 C10.49950317 18.87776978 10.49950317 18.87776978 9.79760742 17.79663086 C6.91910631 13.36400203 3.97771265 8.9797514 0.92578125 4.6640625 C0 3 0 3 0 0 Z " fill="#030E4C" transform="translate(244,125)"/>
<path d="M0 0 C15.18 0 30.36 0 46 0 C46 1.65 46 3.3 46 5 C40.06 5.33 34.12 5.66 28 6 C27.67 15.24 27.34 24.48 27 34 C24.03 34 21.06 34 18 34 C17.505 20.14 17.505 20.14 17 6 C11.39 5.67 5.78 5.34 0 5 C0 3.35 0 1.7 0 0 Z " fill="#05225C" transform="translate(585,136)"/>
<path d="M0 0 C14.85 0 29.7 0 45 0 C45 1.65 45 3.3 45 5 C36.585 5.495 36.585 5.495 28 6 C27.90912109 8.90619141 27.90912109 8.90619141 27.81640625 11.87109375 C27.73202226 14.39323759 27.6473732 16.91537257 27.5625 19.4375 C27.52318359 20.71689453 27.48386719 21.99628906 27.44335938 23.31445312 C27.40146484 24.52939453 27.35957031 25.74433594 27.31640625 26.99609375 C27.27974854 28.12200928 27.24309082 29.2479248 27.20532227 30.40795898 C27 33 27 33 26 34 C23 34.125 23 34.125 20 34 C19 33 19 33 18.88647461 30.40795898 C18.89171143 29.28204346 18.89694824 28.15612793 18.90234375 26.99609375 C18.90556641 25.78115234 18.90878906 24.56621094 18.91210938 23.31445312 C18.92048828 22.03505859 18.92886719 20.75566406 18.9375 19.4375 C18.94201172 18.15423828 18.94652344 16.87097656 18.95117188 15.54882812 C18.96300445 12.3658658 18.98094056 9.18292726 19 6 C12.4 5.67 5.8 5.34 -1 5 C-0.67 3.35 -0.34 1.7 0 0 Z " fill="#06235D" transform="translate(427,136)"/>
<path d="M0 0 C0.76075836 -0.00570007 1.52151672 -0.01140015 2.30532837 -0.01727295 C3.91415012 -0.02671248 5.52299112 -0.03325278 7.13183594 -0.03710938 C9.58563165 -0.04681201 12.03858839 -0.0778428 14.4921875 -0.109375 C16.05728671 -0.11590585 17.62239189 -0.121156 19.1875 -0.125 C20.28304703 -0.1435202 20.28304703 -0.1435202 21.40072632 -0.16241455 C25.85611647 -0.14305487 28.69587488 0.43781963 32.2265625 3.203125 C33.71788778 5.84683799 34.29126884 7.42664897 34.0390625 10.453125 C33.7709375 11.030625 33.5028125 11.608125 33.2265625 12.203125 C32.2365625 12.533125 31.2465625 12.863125 30.2265625 13.203125 C30.8865625 14.09 31.5465625 14.976875 32.2265625 15.890625 C35.25392529 21.12656207 35.13592152 27.34554214 34.2265625 33.203125 C33.2365625 33.863125 32.2465625 34.523125 31.2265625 35.203125 C31.16597656 34.22730469 31.10539062 33.25148437 31.04296875 32.24609375 C30.95917969 30.97378906 30.87539063 29.70148438 30.7890625 28.390625 C30.70785156 27.12605469 30.62664062 25.86148438 30.54296875 24.55859375 C30.35471703 21.21130607 30.35471703 21.21130607 29.2265625 18.203125 C21.51995348 17.01109555 13.96768202 17.17159294 6.1875 17.33007812 C5.19234375 17.34103516 4.1971875 17.35199219 3.171875 17.36328125 C1.81860107 17.38853882 1.81860107 17.38853882 0.43798828 17.41430664 C-1.7734375 17.203125 -1.7734375 17.203125 -3.7734375 15.203125 C-3.8984375 11.578125 -3.8984375 11.578125 -3.7734375 8.203125 C0.53904859 8.17425963 4.85151012 8.15637245 9.1640625 8.140625 C11.01161133 8.12805664 11.01161133 8.12805664 12.89648438 8.11523438 C14.06630859 8.11201172 15.23613281 8.10878906 16.44140625 8.10546875 C18.06743774 8.09761353 18.06743774 8.09761353 19.72631836 8.08959961 C22.2265625 8.203125 22.2265625 8.203125 23.2265625 9.203125 C23.26720082 10.86929615 23.2692835 12.53700595 23.2265625 14.203125 C24.5465625 13.873125 25.8665625 13.543125 27.2265625 13.203125 C26.2365625 12.873125 25.2465625 12.543125 24.2265625 12.203125 C25.2265625 11.203125 25.2265625 11.203125 27.7890625 11.140625 C28.5934375 11.16125 29.3978125 11.181875 30.2265625 11.203125 C29.7315625 8.233125 29.7315625 8.233125 29.2265625 5.203125 C25.4050087 3.92927373 21.8197178 4.07959312 17.83984375 4.10546875 C17.02283493 4.1068837 16.20582611 4.10829865 15.36405945 4.10975647 C12.75568982 4.11535206 10.14740616 4.12790371 7.5390625 4.140625 C5.77018353 4.14564057 4.00130322 4.15020338 2.23242188 4.15429688 C-2.10292432 4.16446897 -6.43808472 4.18404521 -10.7734375 4.203125 C-11.1034375 9.483125 -11.4334375 14.763125 -11.7734375 20.203125 C-12.4334375 19.873125 -13.0934375 19.543125 -13.7734375 19.203125 C-13.85463253 16.95372205 -13.91271569 14.70347629 -13.9609375 12.453125 C-13.99574219 11.20015625 -14.03054688 9.9471875 -14.06640625 8.65625 C-13.75866695 5.02902942 -13.36445581 3.69146893 -10.7734375 1.203125 C-7.14172335 -0.00744638 -3.78296115 0.02189112 0 0 Z M-0.7734375 11.203125 C-0.4434375 12.193125 -0.1134375 13.183125 0.2265625 14.203125 C6.8265625 14.203125 13.4265625 14.203125 20.2265625 14.203125 C20.5565625 13.213125 20.8865625 12.223125 21.2265625 11.203125 C13.9665625 11.203125 6.7065625 11.203125 -0.7734375 11.203125 Z " fill="#03104D" transform="translate(385.7734375,132.796875)"/>
<path d="M0 0 C0.93691177 -0.00524185 1.87382355 -0.0104837 2.83912659 -0.0158844 C4.81860362 -0.02230154 6.7981188 -0.02097159 8.77758789 -0.01245117 C11.80228789 -0.00394595 14.82509615 -0.03269906 17.84960938 -0.06445312 C19.77473902 -0.0660654 21.699872 -0.0654871 23.625 -0.0625 C24.52721786 -0.07373398 25.42943573 -0.08496796 26.35899353 -0.09654236 C30.39923675 -0.05182652 32.8396654 0.14001758 36.43994141 2.10009766 C38.84253331 4.99155742 39.05257944 6.53377852 39.15625 10.265625 C39.19427734 11.39419922 39.23230469 12.52277344 39.27148438 13.68554688 C39.28630859 14.86052734 39.30113281 16.03550781 39.31640625 17.24609375 C39.35830078 18.40947266 39.40019531 19.57285156 39.44335938 20.77148438 C39.7353025 32.17024139 39.7353025 32.17024139 37.37890625 37.43359375 C34.53420721 39.26485973 32.32556075 39.68033878 28.97753906 39.66064453 C27.68665375 39.66041794 27.68665375 39.66041794 26.36968994 39.66018677 C25.44976257 39.6498642 24.52983521 39.63954163 23.58203125 39.62890625 C22.63326111 39.62607635 21.68449097 39.62324646 20.70697021 39.62033081 C17.68081986 39.60914823 14.65496695 39.58404705 11.62890625 39.55859375 C9.57552511 39.54856147 7.52213933 39.53943605 5.46875 39.53125 C0.43868771 39.50921516 -4.59115261 39.47469837 -9.62109375 39.43359375 C-9.95109375 38.77359375 -10.28109375 38.11359375 -10.62109375 37.43359375 C-8.84279175 37.40386475 -8.84279175 37.40386475 -7.02856445 37.37353516 C-2.62080008 37.29733586 1.78664035 37.20864052 6.1940918 37.11621094 C8.09995111 37.07798036 10.00588112 37.0431172 11.91186523 37.01171875 C14.65504178 36.96593953 17.39773413 36.90796645 20.140625 36.84765625 C21.41434212 36.83032944 21.41434212 36.83032944 22.71379089 36.81265259 C27.03068812 36.70549393 30.44451152 36.42702042 34.37890625 34.43359375 C35.33358883 28.05902027 35.49913865 21.87297722 35.44140625 15.43359375 C35.43689453 14.46808594 35.43238281 13.50257813 35.42773438 12.5078125 C35.41606042 10.14967286 35.39968646 7.79166773 35.37890625 5.43359375 C31.13211411 4.24590646 26.97927728 4.25318093 22.59765625 4.23046875 C21.74715698 4.22476868 20.89665771 4.2190686 20.02038574 4.2131958 C18.22502887 4.20376563 16.42965484 4.19721971 14.63427734 4.19335938 C11.88869217 4.18362843 9.14384794 4.15257669 6.3984375 4.12109375 C4.65234819 4.11456564 2.90625353 4.10931441 1.16015625 4.10546875 C-0.0696698 4.08694855 -0.0696698 4.08694855 -1.32434082 4.0680542 C-4.54556931 4.08064835 -7.17565662 4.23848884 -10.14550781 5.53930664 C-12.34555464 8.36362221 -12.07359194 10.52807262 -12.01171875 14.0703125 C-11.99882812 15.36904297 -11.9859375 16.66777344 -11.97265625 18.00585938 C-11.93923476 19.37761478 -11.90537498 20.74935956 -11.87109375 22.12109375 C-11.85102751 23.50453187 -11.83277694 24.88799759 -11.81640625 26.27148438 C-11.76918582 29.65955024 -11.70333444 33.04622616 -11.62109375 36.43359375 C-12.61109375 36.10359375 -13.60109375 35.77359375 -14.62109375 35.43359375 C-16.48246796 30.66436773 -15.80547737 25.02904152 -15.80859375 19.99609375 C-15.82083984 18.95904297 -15.83308594 17.92199219 -15.84570312 16.85351562 C-15.84763672 15.84998047 -15.84957031 14.84644531 -15.8515625 13.8125 C-15.85567139 12.90056885 -15.85978027 11.9886377 -15.86401367 11.04907227 C-15.5099664 7.23710396 -14.59452426 4.57422783 -12.09741211 1.64819336 C-8.17605095 -0.27517959 -4.31060769 -0.01399447 0 0 Z " fill="#020D4A" transform="translate(322.62109375,132.56640625)"/>
<path d="M0 0 C1.17443161 -0.00855011 1.17443161 -0.00855011 2.37258911 -0.01727295 C4.02848971 -0.02671345 5.68440901 -0.03325316 7.34033203 -0.03710938 C9.86654616 -0.04681252 12.39194558 -0.07784282 14.91796875 -0.109375 C16.52864101 -0.11590575 18.13931908 -0.12115594 19.75 -0.125 C20.8783577 -0.1435202 20.8783577 -0.1435202 22.0295105 -0.16241455 C26.5341988 -0.14339207 29.43426401 0.4012447 33.0078125 3.203125 C34.33010439 5.84770879 34.10458444 7.88073801 34.0703125 10.828125 C34.06128906 11.83101562 34.05226563 12.83390625 34.04296875 13.8671875 C34.03136719 14.63804687 34.01976562 15.40890625 34.0078125 16.203125 C30.7078125 16.203125 27.4078125 16.203125 24.0078125 16.203125 C27.23572805 14.0511813 28.29182059 14.00226057 32.0078125 14.203125 C31.7533165 12.72106005 31.47869488 11.24243885 31.1953125 9.765625 C31.04449219 8.94191406 30.89367187 8.11820313 30.73828125 7.26953125 C30.49722656 6.58761719 30.25617187 5.90570313 30.0078125 5.203125 C26.26346897 3.95501049 22.7745108 4.06004566 18.875 4.0703125 C18.0825589 4.06935577 17.2901178 4.06839905 16.47366333 4.06741333 C14.80096355 4.06673341 13.12826111 4.06857458 11.45556641 4.07275391 C8.88568252 4.07811901 6.31597229 4.07279532 3.74609375 4.06640625 C2.12239545 4.06706679 0.49869725 4.06834744 -1.125 4.0703125 C-1.89788361 4.06828827 -2.67076721 4.06626404 -3.46707153 4.06417847 C-7.02442491 3.74940388 -7.02442491 3.74940388 -9.9921875 5.203125 C-10.08002292 7.42167764 -10.09913359 9.64300996 -10.08984375 11.86328125 C-10.0884288 12.52774765 -10.08701385 13.19221405 -10.08555603 13.8768158 C-10.07994268 16.00646399 -10.06738804 18.13600839 -10.0546875 20.265625 C-10.04967421 21.70637869 -10.04511101 23.14713403 -10.04101562 24.58789062 C-10.02996895 28.12633602 -10.01269542 31.66472039 -9.9921875 35.203125 C-6.78611374 36.80616188 -3.29614888 36.38736459 0.2265625 36.40625 C1.44708313 36.41480011 1.44708313 36.41480011 2.69226074 36.42352295 C4.41380512 36.43297382 6.13536759 36.43950728 7.85693359 36.44335938 C10.4973881 36.4530866 13.13707131 36.48411699 15.77734375 36.515625 C17.44791203 36.52215285 19.11848589 36.52740418 20.7890625 36.53125 C21.58179565 36.5435968 22.37452881 36.5559436 23.19128418 36.56866455 C25.64860474 36.59372825 25.64860474 36.59372825 29.0078125 36.203125 C30.94176251 33.30219998 31.30913191 32.30637763 31.6328125 29.015625 C31.8184375 27.1284375 31.8184375 27.1284375 32.0078125 25.203125 C30.6878125 25.203125 29.3678125 25.203125 28.0078125 25.203125 C28.0078125 24.543125 28.0078125 23.883125 28.0078125 23.203125 C29.9878125 23.203125 31.9678125 23.203125 34.0078125 23.203125 C34.14391163 24.93007175 34.24030478 26.66017222 34.3203125 28.390625 C34.37832031 29.35355469 34.43632813 30.31648438 34.49609375 31.30859375 C33.80400274 35.41130925 32.25958714 36.65168387 29.0078125 39.203125 C26.12664766 39.92113738 23.34104498 39.90510098 20.3828125 39.8671875 C19.1460376 39.87436295 19.1460376 39.87436295 17.88427734 39.88168335 C16.14613937 39.88507622 14.40793706 39.87591653 12.66992188 39.85498047 C10.01547425 39.82820229 7.36525425 39.85474496 4.7109375 39.88671875 C3.01821987 39.88341454 1.32550487 39.87700806 -0.3671875 39.8671875 C-1.15689941 39.87730865 -1.94661133 39.88742981 -2.76025391 39.89785767 C-6.81337517 39.81202828 -8.5923564 39.48592681 -11.99414062 37.07983398 C-14.41234933 33.59819259 -14.6116009 31.72255721 -14.5859375 27.51171875 C-14.58335937 26.23748047 -14.58078125 24.96324219 -14.578125 23.65039062 C-14.56362305 22.99208252 -14.54912109 22.33377441 -14.53417969 21.65551758 C-14.49222449 19.64240006 -14.49312218 17.63262289 -14.5 15.61914062 C-14.38828948 4.58772663 -14.38828948 4.58772663 -10.9921875 1.203125 C-7.29657296 -0.02874651 -3.85059025 0.021638 0 0 Z " fill="#03104D" transform="translate(704.9921875,132.796875)"/>
<path d="M0 0 C1.3921875 -0.0309375 1.3921875 -0.0309375 2.8125 -0.0625 C3.699375 -0.06765625 4.58625 -0.0728125 5.5 -0.078125 C6.3146875 -0.0874707 7.129375 -0.09681641 7.96875 -0.10644531 C8.6390625 0.01118164 9.309375 0.12880859 10 0.25 C12 3.25 12 3.25 11.625 5.4375 C11.41875 6.035625 11.2125 6.63375 11 7.25 C9.35 7.58 7.7 7.91 6 8.25 C5.67 7.26 5.34 6.27 5 5.25 C1.37 5.25 -2.26 5.25 -6 5.25 C-6 9.21 -6 13.17 -6 17.25 C-4.14375 17.0025 -4.14375 17.0025 -2.25 16.75 C0.57820832 16.37290556 3.11564062 16.25 6 16.25 C6.33 14.93 6.66 13.61 7 12.25 C8.65 12.91 10.3 13.57 12 14.25 C11.125 20.125 11.125 20.125 10 21.25 C6.69483066 21.50035974 3.37603959 21.43521952 0.0625 21.4375 C-0.87013672 21.44974609 -1.80277344 21.46199219 -2.76367188 21.47460938 C-3.65505859 21.47654297 -4.54644531 21.47847656 -5.46484375 21.48046875 C-6.285896 21.48457764 -7.10694824 21.48868652 -7.95288086 21.49291992 C-10 21.25 -10 21.25 -12 19.25 C-12.22705078 17.37060547 -12.22705078 17.37060547 -12.1953125 15.1171875 C-12.18886719 14.31152344 -12.18242188 13.50585938 -12.17578125 12.67578125 C-12.15064453 11.41314453 -12.15064453 11.41314453 -12.125 10.125 C-12.11597656 9.27550781 -12.10695313 8.42601562 -12.09765625 7.55078125 C-12.07405647 5.45040116 -12.03818483 3.35016556 -12 1.25 C-8.34169572 -0.57915214 -4.02743635 0.02237465 0 0 Z " fill="#F0651E" transform="translate(531,180.75)"/>
<path d="M0 0 C0.92683594 -0.00515625 1.85367188 -0.0103125 2.80859375 -0.015625 C5.72304176 0.26548488 7.91140497 1.03752097 10.5625 2.25 C10.376875 3.03375 10.19125 3.8175 10 4.625 C9.30287734 7.22089775 9.30287734 7.22089775 10.5625 9.25 C10.69665472 11.9223621 10.60568541 14.57250488 10.5625 17.25 C6.08013131 19.00219867 2.60666565 19.4674404 -2.1875 19.125 C-3.31671875 19.06054688 -4.4459375 18.99609375 -5.609375 18.9296875 C-8.4375 18.25 -8.4375 18.25 -9.8515625 16.33984375 C-10.60860773 13.63971575 -10.07099804 11.97404156 -9.4375 9.25 C-9.39925377 6.91698014 -9.39175716 4.58288492 -9.4375 2.25 C-6.1939127 0.32674353 -3.75076483 -0.02080868 0 0 Z M-4.4375 4.25 C-4.4375 5.24 -4.4375 6.23 -4.4375 7.25 C-1.1375 7.25 2.1625 7.25 5.5625 7.25 C5.5625 6.59 5.5625 5.93 5.5625 5.25 C0.58343741 4.49572703 0.58343741 4.49572703 -4.4375 4.25 Z M-6.4375 12.25 C-6.4375 12.91 -6.4375 13.57 -6.4375 14.25 C-2.4775 14.25 1.4825 14.25 5.5625 14.25 C5.5625 13.59 5.5625 12.93 5.5625 12.25 C1.6025 12.25 -2.3575 12.25 -6.4375 12.25 Z " fill="#F06721" transform="translate(614.4375,183.75)"/>
<path d="M0 0 C1.97806641 -0.05607422 1.97806641 -0.05607422 3.99609375 -0.11328125 C7.5625 0.3125 7.5625 0.3125 10.01171875 1.984375 C11.9143736 4.84075356 12.0394928 6.46751331 11.9375 9.875 C11.91816406 11.30005859 11.91816406 11.30005859 11.8984375 12.75390625 C11.5625 15.3125 11.5625 15.3125 9.5625 18.3125 C2.95456627 19.7959137 -5.31748489 20.7550085 -11.4375 17.3125 C-12.73126578 14.72496844 -12.60582397 12.76291015 -12.625 9.875 C-12.63917969 8.90691406 -12.65335938 7.93882812 -12.66796875 6.94140625 C-12.4375 4.3125 -12.4375 4.3125 -10.4375 1.3125 C-6.91443008 0.13814336 -3.6698872 0.05277882 0 0 Z M-6.4375 5.3125 C-6.50929964 6.83178038 -6.52142007 8.35417482 -6.5 9.875 C-6.479375 11.339375 -6.45875 12.80375 -6.4375 14.3125 C-2.1475 14.3125 2.1425 14.3125 6.5625 14.3125 C6.5625 11.3425 6.5625 8.3725 6.5625 5.3125 C-0.22930722 3.54960258 -0.22930722 3.54960258 -6.4375 5.3125 Z " fill="#F06722" transform="translate(560.4375,183.6875)"/>
<path d="M0 0 C0.73283203 0.00773438 1.46566406 0.01546875 2.22070312 0.0234375 C2.94966797 0.01570312 3.67863281 0.00796875 4.4296875 0 C8.24158536 0.01397579 10.04131422 0.11217823 13.28320312 2.2734375 C13.47070312 4.8984375 13.47070312 4.8984375 13.28320312 7.2734375 C11.63320313 7.6034375 9.98320313 7.9334375 8.28320312 8.2734375 C7.95320312 7.6134375 7.62320313 6.9534375 7.28320312 6.2734375 C5.1574353 5.80692543 5.1574353 5.80692543 2.72070312 5.6484375 C1.89441406 5.57367188 1.068125 5.49890625 0.21679688 5.421875 C-0.42128906 5.37289062 -1.059375 5.32390625 -1.71679688 5.2734375 C-1.71679688 7.9134375 -1.71679688 10.5534375 -1.71679688 13.2734375 C-0.28023834 13.35475213 1.15765143 13.41277309 2.59570312 13.4609375 C3.39621094 13.49574219 4.19671875 13.53054687 5.02148438 13.56640625 C7.76171897 13.21145358 8.57491391 12.37977468 10.28320312 10.2734375 C11.27320313 10.9334375 12.26320313 11.5934375 13.28320312 12.2734375 C12.95320312 14.2534375 12.62320313 16.2334375 12.28320312 18.2734375 C9.0591974 19.23151467 6.14034637 19.40766042 2.78320312 19.3984375 C1.37554688 19.40230469 1.37554688 19.40230469 -0.06054688 19.40625 C-2.46482404 19.28603614 -4.4542228 19.08590728 -6.71679688 18.2734375 C-8.20200412 15.30302301 -7.88737907 12.57579303 -7.90429688 9.2734375 C-7.91847656 8.0153125 -7.93265625 6.7571875 -7.94726562 5.4609375 C-7.54203065 -0.14366828 -5.04247599 0.01852149 0 0 Z " fill="#F16924" transform="translate(760.716796875,183.7265625)"/>
<path d="M0 0 C1.32 0.66 2.64 1.32 4 2 C4 6.95 4 11.9 4 17 C2.02 17.99 2.02 17.99 0 19 C-0.75925781 18.44570312 -1.51851562 17.89140625 -2.30078125 17.3203125 C-3.29464844 16.59585938 -4.28851562 15.87140625 -5.3125 15.125 C-6.29863281 14.40570313 -7.28476562 13.68640625 -8.30078125 12.9453125 C-10.17523115 11.5944065 -12.07752993 10.28164671 -14 9 C-14 11.97 -14 14.94 -14 18 C-15.32 18.33 -16.64 18.66 -18 19 C-19.98695584 17.01304416 -19.45381524 13.28886897 -19.625 10.5625 C-19.6765625 9.86833984 -19.728125 9.17417969 -19.78125 8.45898438 C-20.12424481 3.24848963 -20.12424481 3.24848963 -19 1 C-15.3675991 0.51478133 -14.04639069 0.97066386 -10.88671875 2.96875 C-9.81085121 3.80040221 -8.74457007 4.64458243 -7.6875 5.5 C-7.13771484 5.92925781 -6.58792969 6.35851562 -6.02148438 6.80078125 C-4.67253898 7.85647765 -3.33508154 8.92682441 -2 10 C-2.04125 8.72125 -2.0825 7.4425 -2.125 6.125 C-2.1953125 3.9453125 -2.1953125 3.9453125 -2 2 C-1.34 1.34 -0.68 0.68 0 0 Z " fill="#F16C28" transform="translate(745,184)"/>
<path d="M0 0 C0.66209473 -0.00095673 1.32418945 -0.00191345 2.00634766 -0.00289917 C3.40852961 -0.00358076 4.8107147 -0.00172792 6.21289062 0.00244141 C8.36595713 0.00779004 10.51881502 0.0024958 12.671875 -0.00390625 C14.03125046 -0.00324546 15.3906258 -0.00196429 16.75 0 C18.61785156 0.00169189 18.61785156 0.00169189 20.5234375 0.00341797 C23.375 0.1328125 23.375 0.1328125 24.375 1.1328125 C24.46169432 2.6215311 24.48203494 4.1142575 24.47265625 5.60546875 C24.46943359 6.50458984 24.46621094 7.40371094 24.46289062 8.33007812 C24.45032227 9.74836914 24.45032227 9.74836914 24.4375 11.1953125 C24.43298828 12.14470703 24.42847656 13.09410156 24.42382812 14.07226562 C24.4120011 16.42584315 24.39552025 18.77929727 24.375 21.1328125 C24.045 21.1328125 23.715 21.1328125 23.375 21.1328125 C23.375 15.5228125 23.375 9.9128125 23.375 4.1328125 C14.465 4.1328125 5.555 4.1328125 -3.625 4.1328125 C-3.955 9.7428125 -4.285 15.3528125 -4.625 21.1328125 C-2.32982422 21.11541016 -2.32982422 21.11541016 0.01171875 21.09765625 C2.02864461 21.0882752 4.04557179 21.07917534 6.0625 21.0703125 C7.57360352 21.05774414 7.57360352 21.05774414 9.11523438 21.04492188 C10.09169922 21.04169922 11.06816406 21.03847656 12.07421875 21.03515625 C13.41746216 21.02730103 13.41746216 21.02730103 14.7878418 21.01928711 C17.41141759 21.13441052 19.81793053 21.55046965 22.375 22.1328125 C22.375 22.7928125 22.375 23.4528125 22.375 24.1328125 C17.93755461 24.19074841 13.50020611 24.22638717 9.0625 24.2578125 C7.79986328 24.27457031 6.53722656 24.29132813 5.23632812 24.30859375 C3.42358398 24.31826172 3.42358398 24.31826172 1.57421875 24.328125 C0.45877686 24.33859863 -0.65666504 24.34907227 -1.8059082 24.35986328 C-4.625 24.1328125 -4.625 24.1328125 -7.625 22.1328125 C-7.98144531 19.99389648 -7.98144531 19.99389648 -7.953125 17.37890625 C-7.94796875 16.44240234 -7.9428125 15.50589844 -7.9375 14.54101562 C-7.916875 13.56068359 -7.89625 12.58035156 -7.875 11.5703125 C-7.86984375 10.58611328 -7.8646875 9.60191406 -7.859375 8.58789062 C-7.76475493 0.00703329 -7.76475493 0.00703329 0 0 Z " fill="#010D4C" transform="translate(325.625,140.8671875)"/>
<path d="M0 0 C3.83197098 1.34526641 6.60900302 3.06371723 9.75 5.625 C12.10789293 7.90614401 12.10789293 7.90614401 15 9 C15.33 6.36 15.66 3.72 16 1 C17.9375 0.4375 17.9375 0.4375 20 0 C21 1 21 1 21.09765625 4.81640625 C21.09098089 6.39846682 21.07901875 7.98051159 21.0625 9.5625 C21.05798828 10.36880859 21.05347656 11.17511719 21.04882812 12.00585938 C21.03700518 14.00393756 21.01906914 16.00197783 21 18 C15.94213158 17.52723188 13.12916139 16.0138679 9.125 12.9375 C8.15820312 12.20402344 7.19140625 11.47054687 6.1953125 10.71484375 C5.47085938 10.14894531 4.74640625 9.58304688 4 9 C4 11.64 4 14.28 4 17 C2.35 17.33 0.7 17.66 -1 18 C-1.02684312 15.18743719 -1.04676188 12.37512759 -1.0625 9.5625 C-1.07087891 8.76005859 -1.07925781 7.95761719 -1.08789062 7.13085938 C-1.0965143 5.08704779 -1.0522815 3.04316098 -1 1 C-0.67 0.67 -0.34 0.34 0 0 Z " fill="#F1651E" transform="translate(578,184)"/>
<path d="M0 0 C2 0.25 2 0.25 4 1 C5.49640828 5.48922485 4.54749697 9.31585924 4 14 C7.63 14 11.26 14 15 14 C15 9.71 15 5.42 15 1 C16.65 0.67 18.3 0.34 20 0 C21.7462388 1.7462388 21.13221151 3.99878324 21.13671875 6.32226562 C21.13285156 7.02029297 21.12898437 7.71832031 21.125 8.4375 C21.13080078 9.47874023 21.13080078 9.47874023 21.13671875 10.54101562 C21.12663994 15.74672012 21.12663994 15.74672012 20 18 C14.27106972 19.19352714 7.3647757 20.24183286 1.77734375 18.1796875 C0 17 0 17 -0.75 13.9375 C-1.30554169 5.18771842 -1.30554169 5.18771842 -1 1 C-0.67 0.67 -0.34 0.34 0 0 Z " fill="#EF631B" transform="translate(631,184)"/>
<path d="M0 0 C2.4296875 0.109375 2.4296875 0.109375 5 1 C6.6953125 2.890625 6.6953125 2.890625 8.125 5.25 C8.62386719 6.06339844 9.12273438 6.87679687 9.63671875 7.71484375 C10.31154297 8.84599609 10.31154297 8.84599609 11 10 C11.639375 10.928125 12.27875 11.85625 12.9375 12.8125 C14 15 14 15 13.6875 17.3125 C13.460625 17.869375 13.23375 18.42625 13 19 C8.125 17.125 8.125 17.125 7 16 C5.15108054 15.76636119 3.29511969 15.58696365 1.4375 15.4375 C0.42558594 15.35371094 -0.58632813 15.26992187 -1.62890625 15.18359375 C-2.41136719 15.12300781 -3.19382812 15.06242188 -4 15 C-4.66 16.32 -5.32 17.64 -6 19 C-7.32 18.67 -8.64 18.34 -10 18 C-9.32113008 14.14997061 -7.53750804 11.21732129 -5.5625 7.875 C-4.94503906 6.82054687 -4.32757812 5.76609375 -3.69140625 4.6796875 C-2 2 -2 2 0 0 Z M1 7 C1 8.32 1 9.64 1 11 C1.99 10.67 2.98 10.34 4 10 C3.67 9.01 3.34 8.02 3 7 C2.34 7 1.68 7 1 7 Z " fill="#F16B27" transform="translate(709,184)"/>
<path d="M0 0 C1.24106003 0.00007553 2.48212006 0.00015106 3.76078796 0.00022888 C5.11502116 0.00533548 6.46925395 0.01055148 7.82348633 0.01586914 C9.20925343 0.01773456 10.59502119 0.01915788 11.98078918 0.02015686 C15.62549668 0.02397229 19.27016423 0.03379426 22.91485596 0.04486084 C26.63504496 0.05509589 30.35524042 0.05965897 34.07543945 0.06469727 C41.37298369 0.07541741 48.67049503 0.09248214 55.96801758 0.11352539 C55.96801758 0.44352539 55.96801758 0.77352539 55.96801758 1.11352539 C54.14463867 1.2044043 54.14463867 1.2044043 52.28442383 1.29711914 C50.6997753 1.38150871 49.11514056 1.46615749 47.53051758 1.55102539 C46.72807617 1.5903418 45.92563477 1.6296582 45.09887695 1.67016602 C41.21562197 1.51895499 41.21562197 1.51895499 37.96801758 3.11352539 C36.61706776 3.20621538 35.26134667 3.23099865 33.90722656 3.22705078 C33.04640976 3.22697525 32.18559296 3.22689972 31.2986908 3.2268219 C30.36327957 3.22166061 29.42786835 3.21649933 28.46411133 3.21118164 C27.51109634 3.20976669 26.55808136 3.20835175 25.57618713 3.20689392 C22.51926593 3.20127691 19.46241681 3.18872155 16.40551758 3.17602539 C14.33846134 3.17101258 12.27140396 3.1664493 10.2043457 3.16235352 C5.1255417 3.15130195 0.04679188 3.13402594 -5.03198242 3.11352539 C-4.65944336 3.7284082 -4.2869043 4.34329102 -3.90307617 4.97680664 C-3.42999023 5.78504883 -2.9569043 6.59329102 -2.46948242 7.42602539 C-1.99381836 8.2265332 -1.5181543 9.02704102 -1.02807617 9.85180664 C-0.03198242 12.11352539 -0.03198242 12.11352539 -1.03198242 15.11352539 C-3.52750645 12.83754893 -5.09821228 10.50631361 -6.71948242 7.55102539 C-7.15647461 6.76598633 -7.5934668 5.98094727 -8.04370117 5.17211914 C-9.03198242 3.11352539 -9.03198242 3.11352539 -9.03198242 1.11352539 C-5.77826698 0.02895358 -3.42298922 -0.00694318 0 0 Z " fill="#03114E" transform="translate(9.031982421875,1.886474609375)"/>
<path d="M0 0 C0.66 0 1.32 0 2 0 C2.02505615 0.68102783 2.0501123 1.36205566 2.07592773 2.0637207 C2.19190952 5.14683755 2.31462616 8.22965046 2.4375 11.3125 C2.47681641 12.38435547 2.51613281 13.45621094 2.55664062 14.56054688 C2.59853516 15.58857422 2.64042969 16.61660156 2.68359375 17.67578125 C2.72025146 18.62364502 2.75690918 19.57150879 2.79467773 20.5480957 C2.91430187 23.136171 2.91430187 23.136171 4 26 C7.20607376 27.60303688 10.69603862 27.18423959 14.21875 27.203125 C15.43927063 27.21167511 15.43927063 27.21167511 16.68444824 27.22039795 C18.40599262 27.22984882 20.12755509 27.23638228 21.84912109 27.24023438 C24.4895756 27.2499616 27.12925881 27.28099199 29.76953125 27.3125 C31.44009953 27.31902785 33.11067339 27.32427918 34.78125 27.328125 C35.57398315 27.3404718 36.36671631 27.3528186 37.18347168 27.36553955 C39.64079224 27.39060325 39.64079224 27.39060325 43 27 C44.93395001 24.09907498 45.30131941 23.10325263 45.625 19.8125 C45.810625 17.9253125 45.810625 17.9253125 46 16 C44.68 16 43.36 16 42 16 C42 15.34 42 14.68 42 14 C43.98 14 45.96 14 48 14 C48.13609913 15.72694675 48.23249228 17.45704722 48.3125 19.1875 C48.37050781 20.15042969 48.42851563 21.11335938 48.48828125 22.10546875 C47.79619024 26.20818425 46.25177464 27.44855887 43 30 C40.11883516 30.71801238 37.33323248 30.70197598 34.375 30.6640625 C33.1382251 30.67123795 33.1382251 30.67123795 31.87646484 30.67855835 C30.13832687 30.68195122 28.40012456 30.67279153 26.66210938 30.65185547 C24.00766175 30.62507729 21.35744175 30.65161996 18.703125 30.68359375 C17.01040737 30.68028954 15.31769237 30.67388306 13.625 30.6640625 C12.83528809 30.67418365 12.04557617 30.68430481 11.23193359 30.69473267 C7.14588882 30.60820609 5.40377376 30.29112471 1.99145508 27.83081055 C-0.31657922 24.54998945 -0.58999822 23.00993071 -0.48828125 19.04296875 C-0.47216797 17.93115234 -0.45605469 16.81933594 -0.43945312 15.67382812 C-0.39755859 14.52333984 -0.35566406 13.37285156 -0.3125 12.1875 C-0.28994141 11.01767578 -0.26738281 9.84785156 -0.24414062 8.64257812 C-0.18532091 5.76041231 -0.10317141 2.88086319 0 0 Z " fill="#010846" transform="translate(691,142)"/>
<path d="M0 0 C6.27 0 12.54 0 19 0 C19.33 1.32 19.66 2.64 20 4 C15.25 5 15.25 5 13 5 C13 8.96 13 12.92 13 17 C11.02 17.99 11.02 17.99 9 19 C8.34 18.67 7.68 18.34 7 18 C7 13.71 7 9.42 7 5 C5.02 5 3.04 5 1 5 C0.34 4.67 -0.32 4.34 -1 4 C-0.67 2.68 -0.34 1.36 0 0 Z " fill="#F27332" transform="translate(677,184)"/>
<path d="M0 0 C6.4 0.49230769 6.4 0.49230769 9.4375 3.0625 C10.2109375 4.0215625 10.2109375 4.0215625 11 5 C11.886875 4.154375 12.77375 3.30875 13.6875 2.4375 C16.6008348 -0.02603251 16.6008348 -0.02603251 19.875 0.1875 C20.57625 0.455625 21.2775 0.72375 22 1 C20.09494702 3.99365468 18.41293405 6.63294751 15.75 9 C13.38326249 11.70484287 13.84816292 13.50774721 14 17 C13.34 17.66 12.68 18.32 12 19 C9.875 18.625 9.875 18.625 8 18 C7.92523437 17.41992188 7.85046875 16.83984375 7.7734375 16.2421875 C6.69531732 9.83688524 4.74711328 7.33432082 0 3 C0 2.01 0 1.02 0 0 Z " fill="#F37738" transform="translate(777,184)"/>
<path d="M0 0 C4.14581887 -0.02886751 8.29161216 -0.04675327 12.4375 -0.0625 C14.21350586 -0.07506836 14.21350586 -0.07506836 16.02539062 -0.08789062 C17.15009766 -0.09111328 18.27480469 -0.09433594 19.43359375 -0.09765625 C20.47572021 -0.10289307 21.51784668 -0.10812988 22.59155273 -0.11352539 C25 0 25 0 26 1 C26.27314815 6.73611111 26.27314815 6.73611111 26 9 C24 11 24 11 21.66162109 11.22705078 C20.70852051 11.21657715 19.75541992 11.20610352 18.7734375 11.1953125 C17.2265625 11.18564453 17.2265625 11.18564453 15.6484375 11.17578125 C14.56820312 11.15902344 13.48796875 11.14226562 12.375 11.125 C11.28703125 11.11597656 10.1990625 11.10695312 9.078125 11.09765625 C6.38519848 11.07403409 3.69270745 11.04109556 1 11 C-0.20272819 8.59454362 -0.10071472 7.05003047 -0.0625 4.375 C-0.05347656 3.55773437 -0.04445313 2.74046875 -0.03515625 1.8984375 C-0.02355469 1.27195313 -0.01195312 0.64546875 0 0 Z M2 3 C2.33 4.65 2.66 6.3 3 8 C9.6 8 16.2 8 23 8 C23.33 6.35 23.66 4.7 24 3 C22.44926853 1.44926853 20.96937747 1.87030872 18.81640625 1.8671875 C17.97142578 1.86589844 17.12644531 1.86460937 16.25585938 1.86328125 C15.36705078 1.86714844 14.47824219 1.87101563 13.5625 1.875 C12.67755859 1.87113281 11.79261719 1.86726562 10.88085938 1.86328125 C9.61145508 1.86521484 9.61145508 1.86521484 8.31640625 1.8671875 C7.53724854 1.86831543 6.75809082 1.86944336 5.95532227 1.87060547 C3.92025512 1.87854847 3.92025512 1.87854847 2 3 Z " fill="#020C4A" transform="translate(545,141)"/>
<path d="M0 0 C1.98 0.495 1.98 0.495 4 1 C4 5.29 4 9.58 4 14 C8.29 14 12.58 14 17 14 C17 15.32 17 16.64 17 18 C3.57142857 20.28571429 3.57142857 20.28571429 -1 18 C-1.02684312 15.18743719 -1.04676188 12.37512759 -1.0625 9.5625 C-1.07087891 8.76005859 -1.07925781 7.95761719 -1.08789062 7.13085938 C-1.0965143 5.08704779 -1.0522815 3.04316098 -1 1 C-0.67 0.67 -0.34 0.34 0 0 Z " fill="#EE6A27" transform="translate(658,184)"/>
<path d="M0 0 C1 2 1 2 0.14453125 4.7578125 C-2.32272466 10.99468814 -4.86085002 17.07049448 -8 23 C-8.66 23 -9.32 23 -10 23 C-10.2475 23.969375 -10.495 24.93875 -10.75 25.9375 C-12 29 -12 29 -14 29.9375 C-16 30 -16 30 -18 29 C-18.94555664 27.28173828 -18.94555664 27.28173828 -19.91015625 25.0703125 C-20.26013672 24.27496094 -20.61011719 23.47960937 -20.97070312 22.66015625 C-21.51114258 21.40525391 -21.51114258 21.40525391 -22.0625 20.125 C-22.42666016 19.29613281 -22.79082031 18.46726563 -23.16601562 17.61328125 C-24.55800109 14.4279245 -25.90005373 11.29983882 -27 8 C-24 9 -24 9 -22.92504883 10.58227539 C-22.60560303 11.24735107 -22.28615723 11.91242676 -21.95703125 12.59765625 C-21.60576172 13.31630859 -21.25449219 14.03496094 -20.89257812 14.77539062 C-20.53615234 15.53013672 -20.17972656 16.28488281 -19.8125 17.0625 C-19.26045898 18.20041992 -19.26045898 18.20041992 -18.69726562 19.36132812 C-17.78914503 21.23653819 -16.89338985 23.11772733 -16 25 C-15.34 25 -14.68 25 -14 25 C-13.61142822 24.27820557 -13.22285645 23.55641113 -12.82250977 22.81274414 C-11.07100483 19.56167204 -9.31679017 16.31206996 -7.5625 13.0625 C-6.95083984 11.92619141 -6.33917969 10.78988281 -5.70898438 9.61914062 C-5.12568359 8.53955078 -4.54238281 7.45996094 -3.94140625 6.34765625 C-3.40201416 5.34742432 -2.86262207 4.34719238 -2.30688477 3.31665039 C-1 1 -1 1 0 0 Z " fill="#030E4C" transform="translate(156,124)"/>
<path d="M0 0 C1.65 0 3.3 0 5 0 C4.01 1.485 4.01 1.485 3 3 C3 5.31 3 7.62 3 10 C16.86 10 30.72 10 45 10 C45 10.66 45 11.32 45 12 C41.75675352 13.62162324 38.19640154 13.16306279 34.6328125 13.16796875 C33.80167938 13.17129715 32.97054626 13.17462555 32.11422729 13.17805481 C30.3539892 13.18312216 28.59374148 13.18546319 26.83349609 13.18530273 C24.14274195 13.18748561 21.45240012 13.20563315 18.76171875 13.22460938 C17.05208474 13.22754407 15.34244877 13.22952836 13.6328125 13.23046875 C12.82852814 13.23765427 12.02424377 13.24483978 11.19558716 13.25224304 C3.95205819 13.22268769 3.95205819 13.22268769 1 11 C-0.88364104 6.96362635 -1.25659559 4.27242501 0 0 Z " fill="#010947" transform="translate(371,159)"/>
<path d="M0 0 C1.3921875 -0.0309375 1.3921875 -0.0309375 2.8125 -0.0625 C3.699375 -0.06765625 4.58625 -0.0728125 5.5 -0.078125 C6.3146875 -0.0874707 7.129375 -0.09681641 7.96875 -0.10644531 C8.6390625 0.01118164 9.309375 0.12880859 10 0.25 C12 3.25 12 3.25 11.625 5.4375 C11.41875 6.035625 11.2125 6.63375 11 7.25 C9.35 7.58 7.7 7.91 6 8.25 C5.67 7.26 5.34 6.27 5 5.25 C1.37 4.92 -2.26 4.59 -6 4.25 C-6 3.59 -6 2.93 -6 2.25 C-9.11785113 2.89644661 -9.11785113 2.89644661 -10 5.25 C-10.22858114 7.2874763 -10.41024278 9.33040303 -10.5625 11.375 C-10.64628906 12.47070312 -10.73007812 13.56640625 -10.81640625 14.6953125 C-10.87699219 15.53835937 -10.93757812 16.38140625 -11 17.25 C-11.33 17.25 -11.66 17.25 -12 17.25 C-12 11.97 -12 6.69 -12 1.25 C-8.34169572 -0.57915214 -4.02743635 0.02237465 0 0 Z " fill="#E85E1A" transform="translate(531,180.75)"/>
<path d="M0 0 C4.98012761 1.50912958 8.24259942 4.55661849 12 8 C10 8.66666667 8 9.33333333 6 10 C5.34 9.67 4.68 9.34 4 9 C4 11.64 4 14.28 4 17 C2.35 17.33 0.7 17.66 -1 18 C-1.02684312 15.18743719 -1.04676188 12.37512759 -1.0625 9.5625 C-1.07087891 8.76005859 -1.07925781 7.95761719 -1.08789062 7.13085938 C-1.0965143 5.08704779 -1.0522815 3.04316098 -1 1 C-0.67 0.67 -0.34 0.34 0 0 Z " fill="#EF621B" transform="translate(578,184)"/>
<path d="M0 0 C1.67542976 0.28604898 3.34385343 0.61781233 5 1 C5.02691685 3.45840605 5.04679802 5.91651882 5.0625 8.375 C5.07087891 9.07367188 5.07925781 9.77234375 5.08789062 10.4921875 C5.11328125 15.7734375 5.11328125 15.7734375 4 18 C3.030625 17.690625 2.06125 17.38125 1.0625 17.0625 C-3.23664491 15.82032903 -7.55342634 15.38315147 -12 15 C-12 14.67 -12 14.34 -12 14 C-8.37 14 -4.74 14 -1 14 C-1.01160156 13.07316406 -1.02320313 12.14632812 -1.03515625 11.19140625 C-1.04417969 9.99386719 -1.05320312 8.79632813 -1.0625 7.5625 C-1.07410156 6.36753906 -1.08570313 5.17257813 -1.09765625 3.94140625 C-1 1 -1 1 0 0 Z " fill="#F27738" transform="translate(647,184)"/>
<path d="M0 0 C4.31248609 -0.02886537 8.62494762 -0.04675255 12.9375 -0.0625 C14.78504883 -0.07506836 14.78504883 -0.07506836 16.66992188 -0.08789062 C17.83974609 -0.09111328 19.00957031 -0.09433594 20.21484375 -0.09765625 C21.84087524 -0.10551147 21.84087524 -0.10551147 23.49975586 -0.11352539 C26 0 26 0 27 1 C26.67 3.31 26.34 5.62 26 8 C17.09 8 8.18 8 -1 8 C-1.33 6.68 -1.66 5.36 -2 4 C-2.99 4 -3.98 4 -5 4 C-5 3.34 -5 2.68 -5 2 C-3.68 2 -2.36 2 -1 2 C-1 3.32 -1 4.64 -1 6 C0.34191406 5.89171875 0.34191406 5.89171875 1.7109375 5.78125 C8.82522148 5.23516424 15.86482853 4.85203561 23 5 C23.33 3.68 23.66 2.36 24 1 C16.08 1 8.16 1 0 1 C0 0.67 0 0.34 0 0 Z " fill="#000846" transform="translate(383,156)"/>
<path d="M0 0 C10.23 0 20.46 0 31 0 C31 0.33 31 0.66 31 1 C21.1 1 11.2 1 1 1 C1 1.99 1 2.98 1 4 C6.94 4 12.88 4 19 4 C19 7.3 19 10.6 19 14 C17 11 17 11 16 8 C10.39 7.67 4.78 7.34 -1 7 C-0.67 4.69 -0.34 2.38 0 0 Z " fill="#061652" transform="translate(652,143)"/>
<path d="M0 0 C2.29648357 2.89585905 4.04347557 5.8172031 5.6875 9.125 C6.12449219 9.99382812 6.56148438 10.86265625 7.01171875 11.7578125 C8 14 8 14 8 16 C8.66 16 9.32 16 10 16 C10.33 17.65 10.66 19.3 11 21 C11.66 21 12.32 21 13 21 C13.66 22.32 14.32 23.64 15 25 C17.32472205 22.14693203 18.7508258 19.45925163 20 16 C20.99 16 21.98 16 23 16 C23.33 15.34 23.66 14.68 24 14 C23.5991439 18.40941707 21.79538875 20.87158914 19.2109375 24.28515625 C17.72082866 26.39534263 16.81466291 28.55601126 16 31 C13 30 13 30 11.46606445 27.45556641 C10.67268677 25.79533447 10.67268677 25.79533447 9.86328125 24.1015625 C9.57897751 23.51079926 9.29467377 22.92003601 9.00175476 22.31137085 C8.40278563 21.06114302 7.80881413 19.80851043 7.21948242 18.55371094 C6.31669059 16.63391135 5.39707266 14.72291235 4.47460938 12.8125 C0 3.43051131 0 3.43051131 0 0 Z " fill="#04104D" transform="translate(116,238)"/>
<path d="M0 0 C0.33 0 0.66 0 1 0 C1.33 9.9 1.66 19.8 2 30 C-2.29 30 -6.58 30 -11 30 C-11.02699224 26.10412022 -11.04683573 22.20842786 -11.0625 18.3125 C-11.07087891 17.20970703 -11.07925781 16.10691406 -11.08789062 14.97070312 C-11.09111328 13.90400391 -11.09433594 12.83730469 -11.09765625 11.73828125 C-11.10289307 10.75899658 -11.10812988 9.77971191 -11.11352539 8.77075195 C-11.00308543 6.07530428 -10.60534166 3.62454361 -10 1 C-9.67 1 -9.34 1 -9 1 C-8.67 9.91 -8.34 18.82 -8 28 C-4.535 27.505 -4.535 27.505 -1 27 C-0.67 18.09 -0.34 9.18 0 0 Z " fill="#000847" transform="translate(454,142)"/>
<path d="M0 0 C7.59 0 15.18 0 23 0 C23 0.33 23 0.66 23 1 C15.74 1 8.48 1 1 1 C1.33 7.27 1.66 13.54 2 20 C8.93 20 15.86 20 23 20 C23 20.33 23 20.66 23 21 C18.22925383 22.23398119 13.5740582 22.11225053 8.6875 22.0625 C4.3871875 22.0315625 4.3871875 22.0315625 0 22 C0 14.74 0 7.48 0 0 Z " fill="#000442" transform="translate(703,142)"/>
<path d="M0 0 C2.4178712 -0.10826289 4.83087556 -0.18739789 7.25 -0.25 C8.27287109 -0.30027344 8.27287109 -0.30027344 9.31640625 -0.3515625 C12.67174326 -0.41671467 14.65285594 -0.23566059 17.45703125 1.66796875 C19.34167039 4.51639804 19.5067712 6.16821115 19.4375 9.5625 C19.43621094 10.51253906 19.43492187 11.46257812 19.43359375 12.44140625 C18.94518912 15.32343358 18.25817348 16.22101453 16 18 C15.01 17.34 14.02 16.68 13 16 C13.33 15.67 13.66 15.34 14 15 C14.23287008 13.31816052 14.41264166 11.6287584 14.5625 9.9375 C14.64628906 9.01839844 14.73007812 8.09929687 14.81640625 7.15234375 C14.87699219 6.44207031 14.93757812 5.73179687 15 5 C14.34 4.67 13.68 4.34 13 4 C12.67 3.34 12.34 2.68 12 2 C9.1840151 1.53101037 9.1840151 1.53101037 5.9375 1.375 C4.28041016 1.26285156 4.28041016 1.26285156 2.58984375 1.1484375 C1.73519531 1.09945312 0.88054688 1.05046875 0 1 C0 0.67 0 0.34 0 0 Z " fill="#F06C29" transform="translate(553,184)"/>
<path d="M0 0 C0.99 0.33 1.98 0.66 3 1 C5.05893621 1.22325814 7.12233653 1.40705759 9.1875 1.5625 C10.27417969 1.64628906 11.36085938 1.73007813 12.48046875 1.81640625 C13.72763672 1.90728516 13.72763672 1.90728516 15 2 C15 2.33 15 2.66 15 3 C6.42857143 4.28571429 6.42857143 4.28571429 3 3 C3 4.32 3 5.64 3 7 C7.29 7 11.58 7 16 7 C11.46496815 10.40127389 11.46496815 10.40127389 6.9375 10.3125 C5.65166016 10.30669922 5.65166016 10.30669922 4.33984375 10.30078125 C2 10 2 10 -1 8 C-1.25 4.4375 -1.25 4.4375 -1 1 C-0.67 0.67 -0.34 0.34 0 0 Z " fill="#F1661E" transform="translate(606,185)"/>
<path d="M0 0 C2.00720923 0.28674418 4.0085944 0.61866701 6 1 C6 1.66 6 2.32 6 3 C4.68 2.67 3.36 2.34 2 2 C2.04125 3.11375 2.0825 4.2275 2.125 5.375 C2 9 2 9 0 11 C-2.24658203 11.22705078 -2.24658203 11.22705078 -5.0078125 11.1953125 C-5.99394531 11.18886719 -6.98007812 11.18242187 -7.99609375 11.17578125 C-9.54490234 11.15064453 -9.54490234 11.15064453 -11.125 11.125 C-12.16527344 11.11597656 -13.20554687 11.10695312 -14.27734375 11.09765625 C-16.85179092 11.07403747 -19.42578212 11.04110149 -22 11 C-22 10.67 -22 10.34 -22 10 C-13.585 9.505 -13.585 9.505 -5 9 C-11.93 8.505 -11.93 8.505 -19 8 C-19 7.67 -19 7.34 -19 7 C-13.06 7 -7.12 7 -1 7 C-1 5.02 -1 3.04 -1 1 C-0.67 0.67 -0.34 0.34 0 0 Z " fill="#041754" transform="translate(726,154)"/>
<path d="M0 0 C0.33 0 0.66 0 1 0 C1 6.6 1 13.2 1 20 C-0.32 19.67 -1.64 19.34 -3 19 C-4.46684337 14.11052208 -4.05390562 8.94877422 -3 4 C-2.34 3.67 -1.68 3.34 -1 3 C-0.67 2.01 -0.34 1.02 0 0 Z " fill="#001654" transform="translate(702,142)"/>
<path d="M0 0 C5.61 0 11.22 0 17 0 C17 0.99 17 1.98 17 3 C12.02936879 3.91297308 7.97063121 3.91297308 3 3 C3 6.3 3 9.6 3 13 C2.67 13 2.34 13 2 13 C1.92652344 12.04287109 1.92652344 12.04287109 1.8515625 11.06640625 C1.77679687 10.24011719 1.70203125 9.41382813 1.625 8.5625 C1.55539062 7.73878906 1.48578125 6.91507813 1.4140625 6.06640625 C1.27742187 5.38449219 1.14078125 4.70257813 1 4 C0.34 3.67 -0.32 3.34 -1 3 C-0.67 2.01 -0.34 1.02 0 0 Z " fill="#F06016" transform="translate(550,185)"/>
<path d="M0 0 C3.96 0 7.92 0 12 0 C11.67 1.32 11.34 2.64 11 4 C9.02 4 7.04 4 5 4 C5 7.96 5 11.92 5 16 C3.02 16.99 3.02 16.99 1 18 C1 17.34 1 16.68 1 16 C1.66 16 2.32 16 3 16 C2.88658509 13.51979503 2.75985314 11.04155031 2.625 8.5625 C2.5940625 7.85544922 2.563125 7.14839844 2.53125 6.41992188 C2.42719371 4.60760812 2.22080108 2.80182012 2 1 C1.34 0.67 0.68 0.34 0 0 Z " fill="#F06620" transform="translate(685,185)"/>
<path d="M0 0 C0.99 0 1.98 0 3 0 C3.05382106 2.62527189 3.09358313 5.24944713 3.125 7.875 C3.14175781 8.62136719 3.15851562 9.36773437 3.17578125 10.13671875 C3.1933959 12.09194461 3.10320189 14.04742021 3 16 C2.34 16.66 1.68 17.32 1 18 C-1.23157731 14.42771221 -1.23870158 11.46913776 -1.1875 7.3125 C-1.18105469 6.15363281 -1.17460938 4.99476563 -1.16796875 3.80078125 C-1 1 -1 1 0 0 Z " fill="#F2712E" transform="translate(631,184)"/>
<path d="M0 0 C0.99 0.495 0.99 0.495 2 1 C4.48099734 1.08649451 6.93344928 1.11565054 9.4140625 1.09765625 C10.14370209 1.0962413 10.87334167 1.09482635 11.62509155 1.09336853 C13.95843585 1.08776531 16.29168464 1.07521235 18.625 1.0625 C20.20572778 1.05748541 21.78645707 1.05292243 23.3671875 1.04882812 C27.24482854 1.03779484 31.12239807 1.02052811 35 1 C35 3.97 35 6.94 35 10 C32.525 9.505 32.525 9.505 30 9 C30.66 7.02 31.32 5.04 32 3 C21.77 3 11.54 3 1 3 C0.67 2.01 0.34 1.02 0 0 Z " fill="#021552" transform="translate(492,162)"/>
<path d="M0 0 C0.66 0 1.32 0 2 0 C2.33 1.65 2.66 3.3 3 5 C3.33 5 3.66 5 4 5 C4.33 8.96 4.66 12.92 5 17 C3.68 17.33 2.36 17.66 1 18 C-0.98695584 16.01304416 -0.45381524 12.28886897 -0.625 9.5625 C-0.6765625 8.86833984 -0.728125 8.17417969 -0.78125 7.45898438 C-1.12424481 2.24848963 -1.12424481 2.24848963 0 0 Z " fill="#F1641C" transform="translate(726,185)"/>
<path d="M0 0 C0.99 0.495 0.99 0.495 2 1 C3.78886469 1.1294669 5.58198835 1.20241556 7.375 1.24609375 C8.97601562 1.29540039 8.97601562 1.29540039 10.609375 1.34570312 C12.86968936 1.40689827 15.13011276 1.46419045 17.390625 1.51757812 C18.45796875 1.55173828 19.5253125 1.58589844 20.625 1.62109375 C21.60726562 1.6461499 22.58953125 1.67120605 23.6015625 1.69702148 C26 2 26 2 28 4 C18.76 4 9.52 4 0 4 C0 2.68 0 1.36 0 0 Z " fill="#000644" transform="translate(760,145)"/>
<path d="M0 0 C1.05960938 0.00676758 1.05960938 0.00676758 2.140625 0.01367188 C3.88545275 0.02546125 5.630237 0.04339676 7.375 0.0625 C7.045 1.0525 6.715 2.0425 6.375 3.0625 C0.99009359 3.97907981 -4.16730189 4.17388159 -9.625 4.0625 C-9.625 3.0725 -9.625 2.0825 -9.625 1.0625 C-6.55966836 -0.47016582 -3.35745728 -0.04026471 0 0 Z " fill="#F0631C" transform="translate(668.625,198.9375)"/>
<path d="M0 0 C1.65 0.33 3.3 0.66 5 1 C5 5.95 5 10.9 5 16 C4.34 16 3.68 16 3 16 C2.67 13.36 2.34 10.72 2 8 C1.01 8.495 1.01 8.495 0 9 C-0.87890625 2.84765625 -0.87890625 2.84765625 -1 1 C-0.67 0.67 -0.34 0.34 0 0 Z " fill="#EC6724" transform="translate(647,184)"/>
<path d="M0 0 C0.66 0 1.32 0 2 0 C2 4.29 2 8.58 2 13 C7.445 12.505 7.445 12.505 13 12 C13 12.99 13 13.98 13 15 C8.71 15 4.42 15 0 15 C-0.94644447 11.2142221 -0.9693628 9.04738616 -0.5625 5.25 C-0.46066406 4.26515625 -0.35882812 3.2803125 -0.25390625 2.265625 C-0.17011719 1.51796875 -0.08632813 0.7703125 0 0 Z " fill="#000847" transform="translate(787,157)"/>
<path d="M0 0 C0 2.31 0 4.62 0 7 C-1.98 7.66 -3.96 8.32 -6 9 C-6 8.34 -6 7.68 -6 7 C-6.93972656 7.05220703 -6.93972656 7.05220703 -7.8984375 7.10546875 C-8.71570313 7.13253906 -9.53296875 7.15960938 -10.375 7.1875 C-11.18710937 7.22230469 -11.99921875 7.25710937 -12.8359375 7.29296875 C-13.55007813 7.19628906 -14.26421875 7.09960938 -15 7 C-15.66 6.01 -16.32 5.02 -17 4 C-13.04 4 -9.08 4 -5 4 C-4.67 3.01 -4.34 2.02 -4 1 C-1 0 -1 0 0 0 Z " fill="#F17637" transform="translate(625,194)"/>
<path d="M0 0 C0.66 0.99 1.32 1.98 2 3 C2.99 3 3.98 3 5 3 C5.33 3.99 5.66 4.98 6 6 C4.35 6 2.7 6 1 6 C0.67 7.32 0.34 8.64 0 10 C-1.32 10.33 -2.64 10.66 -4 11 C-4.65234375 9.234375 -4.65234375 9.234375 -5 7 C-4.00390625 5.078125 -4.00390625 5.078125 -2.5625 3.25 C-2.08941406 2.63640625 -1.61632812 2.0228125 -1.12890625 1.390625 C-0.75636719 0.93171875 -0.38382813 0.4728125 0 0 Z " fill="#F1651D" transform="translate(704,192)"/>
<path d="M0 0 C0.33 0 0.66 0 1 0 C1.33 6.27 1.66 12.54 2 19 C-0.31 18.67 -2.62 18.34 -5 18 C-6.83019997 17.86647018 -8.66260125 17.75953723 -10.49609375 17.68359375 C-11.95112305 17.62075195 -11.95112305 17.62075195 -13.43554688 17.55664062 C-14.42619141 17.51732422 -15.41683594 17.47800781 -16.4375 17.4375 C-17.96407227 17.37272461 -17.96407227 17.37272461 -19.52148438 17.30664062 C-22.01421028 17.20131418 -24.50702338 17.09918328 -27 17 C-26.67 16.34 -26.34 15.68 -26 15 C-25.27820557 15.03552979 -24.55641113 15.07105957 -23.81274414 15.10766602 C-20.56289576 15.264642 -17.31273147 15.41367651 -14.0625 15.5625 C-12.92619141 15.61857422 -11.78988281 15.67464844 -10.61914062 15.73242188 C-9.53955078 15.78076172 -8.45996094 15.82910156 -7.34765625 15.87890625 C-5.84730835 15.94960327 -5.84730835 15.94960327 -4.31665039 16.02172852 C-2.03733998 16.27082125 -2.03733998 16.27082125 -1 15 C-0.76346477 12.47403741 -0.57826308 9.96892793 -0.4375 7.4375 C-0.39431641 6.72658203 -0.35113281 6.01566406 -0.30664062 5.28320312 C-0.20028223 3.52238088 -0.09961154 1.7612168 0 0 Z " fill="#081954" transform="translate(348,145)"/>
<path d="M0 0 C4.95 0 9.9 0 15 0 C15 1.65 15 3.3 15 5 C13.35 5.33 11.7 5.66 10 6 C9.67 5.34 9.34 4.68 9 4 C6.87423218 3.53348793 6.87423218 3.53348793 4.4375 3.375 C3.61121094 3.30023438 2.78492188 3.22546875 1.93359375 3.1484375 C1.29550781 3.09945312 0.65742187 3.05046875 0 3 C0 5.31 0 7.62 0 10 C-0.33 10 -0.66 10 -1 10 C-1 7.36 -1 4.72 -1 2 C-0.21753906 2.01160156 0.56492187 2.02320313 1.37109375 2.03515625 C2.38300781 2.04417969 3.39492188 2.05320313 4.4375 2.0625 C5.95150391 2.07990234 5.95150391 2.07990234 7.49609375 2.09765625 C9.94021067 2.28612676 9.94021067 2.28612676 11 1 C7.37 1 3.74 1 0 1 C0 0.67 0 0.34 0 0 Z " fill="#F17232" transform="translate(759,186)"/>
<path d="M0 0 C1.32 0.33 2.64 0.66 4 1 C4 6.61 4 12.22 4 18 C3.34 17.67 2.68 17.34 2 17 C2 13.7 2 10.4 2 7 C1.34 8.65 0.68 10.3 0 12 C-0.66 11.67 -1.32 11.34 -2 11 C-1.85957123 9.35369672 -1.71250671 7.70795821 -1.5625 6.0625 C-1.48128906 5.14597656 -1.40007813 4.22945312 -1.31640625 3.28515625 C-1 1 -1 1 0 0 Z " fill="#F2783A" transform="translate(595,184)"/>
<path d="M0 0 C3.29150125 -0.08685287 6.5827096 -0.14033895 9.875 -0.1875 C10.81214844 -0.21263672 11.74929688 -0.23777344 12.71484375 -0.26367188 C14.05869141 -0.27817383 14.05869141 -0.27817383 15.4296875 -0.29296875 C16.25710449 -0.3086792 17.08452148 -0.32438965 17.93701172 -0.34057617 C18.61779785 -0.22818604 19.29858398 -0.1157959 20 0 C22 3 22 3 21.625 5.1875 C21.41875 5.785625 21.2125 6.38375 21 7 C19.68 7 18.36 7 17 7 C17 5.35 17 3.7 17 2 C11.39 1.67 5.78 1.34 0 1 C0 0.67 0 0.34 0 0 Z " fill="#CD5925" transform="translate(521,181)"/>
<path d="M0 0 C0.66 0.33 1.32 0.66 2 1 C3.87056791 1.2275015 5.74685958 1.40962811 7.625 1.5625 C8.62789062 1.64628906 9.63078125 1.73007813 10.6640625 1.81640625 C11.43492187 1.87699219 12.20578125 1.93757812 13 2 C13 2.99 13 3.98 13 5 C7.72630218 6.07626486 4.03216982 6.01286793 -1 4 C-1.33 3.01 -1.66 2.02 -2 1 C-1.34 0.67 -0.68 0.34 0 0 Z " fill="#EF6017" transform="translate(606,197)"/>
<path d="M0 0 C1.65 0.33 3.3 0.66 5 1 C2.14723863 3.93200474 -0.65079784 6.64315404 -4 9 C-4.33 8.01 -4.66 7.02 -5 6 C-3.59554165 3.7363436 -1.8032087 1.9791315 0 0 Z " fill="#F16923" transform="translate(794,184)"/>
<path d="M0 0 C1.98 0.66 3.96 1.32 6 2 C6 2.66 6 3.32 6 4 C5.01 4.495 5.01 4.495 4 5 C3.67 5.99 3.34 6.98 3 8 C0.9375 8.6875 0.9375 8.6875 -1 9 C-1.80967438 6.08517222 -2.21845993 4.53886783 -1.0625 1.6875 C-0.711875 1.130625 -0.36125 0.57375 0 0 Z " fill="#F17738" transform="translate(706,187)"/>
<path d="M0 0 C0.99 0.66 1.98 1.32 3 2 C2.34 2 1.68 2 1 2 C1 4.64 1 7.28 1 10 C-0.65 10.33 -2.3 10.66 -4 11 C-3.91291331 9.54054712 -3.80473093 8.08234132 -3.6875 6.625 C-3.62949219 5.81289062 -3.57148437 5.00078125 -3.51171875 4.1640625 C-3 2 -3 2 0 0 Z " fill="#F06D2A" transform="translate(581,191)"/>
<path d="M0 0 C0.33 0.66 0.66 1.32 1 2 C1.99 1.67 2.98 1.34 4 1 C6.06145107 0.931009 8.12501401 0.91532273 10.1875 0.9375 C11.81751953 0.95103516 11.81751953 0.95103516 13.48046875 0.96484375 C14.31191406 0.97644531 15.14335938 0.98804688 16 1 C12.89779373 3.74148461 10.99544625 4.3729984 6.875 4.25 C6.00617187 4.23453125 5.13734375 4.2190625 4.2421875 4.203125 C2 4 2 4 0 3 C0 2.01 0 1.02 0 0 Z " fill="#EF5B0F" transform="translate(606,191)"/>
<path d="M0 0 C1.65 0 3.3 0 5 0 C5.66 1.65 6.32 3.3 7 5 C6.01 5.66 5.02 6.32 4 7 C2 5.1875 2 5.1875 0 3 C0 2.01 0 1.02 0 0 Z " fill="#F16A25" transform="translate(777,184)"/>
<path d="M0 0 C0.625 3.375 0.625 3.375 1 7 C0.34 7.66 -0.32 8.32 -1 9 C-3.125 8.625 -3.125 8.625 -5 8 C-3.91891892 0 -3.91891892 0 0 0 Z " fill="#F16720" transform="translate(790,194)"/>
<path d="M0 0 C0.99 1.485 0.99 1.485 2 3 C0.68 3.33 -0.64 3.66 -2 4 C-2 3.34 -2 2.68 -2 2 C-3.65 2 -5.3 2 -7 2 C-7 1.34 -7 0.68 -7 0 C-7.66 -0.33 -8.32 -0.66 -9 -1 C-5.38792253 -2.33780647 -3.37254128 -1.77502172 0 0 Z " fill="#F0641C" transform="translate(740,192)"/>
<path d="M0 0 C0.33 0.99 0.66 1.98 1 3 C4.3 3 7.6 3 11 3 C11 2.34 11 1.68 11 1 C10.34 0.67 9.68 0.34 9 0 C11.97 0.495 11.97 0.495 15 1 C14.67 2.32 14.34 3.64 14 5 C7.07 4.505 7.07 4.505 0 4 C0 2.68 0 1.36 0 0 Z " fill="#F07536" transform="translate(609,188)"/>
<path d="M0 0 C7.59 0 15.18 0 23 0 C23 0.33 23 0.66 23 1 C16.4 1 9.8 1 3 1 C3 1.66 3 2.32 3 3 C2.01 2.67 1.02 2.34 0 2 C0 1.34 0 0.68 0 0 Z " fill="#010543" transform="translate(0,3)"/>
<path d="M0 0 C2.31 0 4.62 0 7 0 C7.33 1.32 7.66 2.64 8 4 C2.25 4.125 2.25 4.125 0 3 C0 2.01 0 1.02 0 0 Z " fill="#EF651E" transform="translate(676,185)"/>
<path d="M0 0 C0.33 0.66 0.66 1.32 1 2 C1.99 2.33 2.98 2.66 4 3 C3.34 4.32 2.68 5.64 2 7 C0.68 6.67 -0.64 6.34 -2 6 C-1.49396008 3.83125748 -1.00016187 2.00032373 0 0 Z " fill="#F16D2A" transform="translate(701,196)"/>
<path d="M0 0 C0.33 0 0.66 0 1 0 C1.33 3.63 1.66 7.26 2 11 C-1.28976808 12.09658936 -2.71303767 11.79953138 -6 11 C-5.360625 10.690625 -4.72125 10.38125 -4.0625 10.0625 C-2.06389179 9.1654837 -2.06389179 9.1654837 -1 8 C-0.76924918 6.65252916 -0.58846937 5.29622435 -0.4375 3.9375 C-0.293125 2.638125 -0.14875 1.33875 0 0 Z " fill="#011552" transform="translate(358,159)"/>
<path d="M0 0 C4.29 0.33 8.58 0.66 13 1 C13 1.33 13 1.66 13 2 C9.37 2 5.74 2 2 2 C1.67 2.66 1.34 3.32 1 4 C0.34 4 -0.32 4 -1 4 C-0.67 2.68 -0.34 1.36 0 0 Z " fill="#EF7639" transform="translate(606,194)"/>
<path d="M0 0 C1.2065625 0.0309375 1.2065625 0.0309375 2.4375 0.0625 C2.4375 0.7225 2.4375 1.3825 2.4375 2.0625 C1.7775 2.0625 1.1175 2.0625 0.4375 2.0625 C0.7675 3.0525 1.0975 4.0425 1.4375 5.0625 C-0.2125 5.0625 -1.8625 5.0625 -3.5625 5.0625 C-3.5625 4.4025 -3.5625 3.7425 -3.5625 3.0625 C-2.5725 2.7325 -1.5825 2.4025 -0.5625 2.0625 C-1.5525 1.7325 -2.5425 1.4025 -3.5625 1.0625 C-2.5625 0.0625 -2.5625 0.0625 0 0 Z " fill="#000645" transform="translate(413.5625,143.9375)"/>
<path d="M0 0 C1.9375 0.3125 1.9375 0.3125 4 1 C5 4 5 4 4.0625 6.1875 C3.5365625 7.0846875 3.5365625 7.0846875 3 8 C2.896875 7.38125 2.79375 6.7625 2.6875 6.125 C2.12474627 3.63473516 2.12474627 3.63473516 -1 2 C-0.67 1.34 -0.34 0.68 0 0 Z " fill="#03124F" transform="translate(733,134)"/>
</svg>
